<svg id="svg" version="1.1" xmlns="http://www.w3.org/2000/svg" xmlns:xlink="http://www.w3.org/1999/xlink" width="400" height="400" viewBox="0, 0, 400,400"><g id="svgg"><path id="path0" d="M189.842 53.617 C 187.982 54.128,185.673 55.396,180.963 58.491 C 178.378 60.190,175.958 61.735,175.586 61.925 C 174.571 62.442,174.768 62.494,176.061 62.049 C 176.694 61.831,178.310 61.410,179.652 61.113 C 183.476 60.269,183.482 60.266,183.331 59.460 C 183.173 58.619,183.196 58.600,187.789 55.694 C 192.033 53.008,192.025 53.016,189.842 53.617 M199.896 57.092 C 195.500 57.353,189.699 58.375,187.743 59.232 L 187.090 59.518 187.720 59.535 C 188.067 59.545,189.660 59.370,191.260 59.146 C 193.949 58.771,204.906 57.470,205.380 57.470 C 205.494 57.470,205.525 57.408,205.449 57.332 C 205.191 57.074,202.299 56.949,199.896 57.092 M187.194 61.963 C 183.757 62.335,180.644 62.789,177.146 63.426 C 175.571 63.713,174.190 63.892,174.078 63.822 C 173.413 63.411,164.616 67.042,160.788 69.308 C 154.084 73.275,146.771 80.396,141.578 88.014 C 139.564 90.968,139.535 90.916,142.461 89.606 C 153.535 84.649,157.560 83.201,164.345 81.734 C 167.249 81.107,172.736 80.375,174.540 80.375 C 175.858 80.375,178.515 79.114,178.808 78.348 C 178.869 78.190,179.042 78.108,179.193 78.165 C 179.343 78.223,180.377 77.807,181.490 77.240 C 183.742 76.094,184.313 75.995,184.788 76.673 C 185.536 77.742,184.871 79.131,182.023 82.450 C 178.670 86.358,177.781 86.918,176.852 85.708 C 176.485 85.230,176.410 85.218,174.909 85.388 C 174.050 85.486,171.145 85.807,168.454 86.102 C 154.804 87.598,151.677 88.381,144.426 92.122 C 141.142 93.816,138.982 94.769,138.811 94.598 C 138.755 94.542,138.618 94.808,138.509 95.191 C 138.399 95.574,137.972 96.989,137.560 98.336 C 137.147 99.683,136.534 101.813,136.198 103.070 L 135.585 105.357 136.767 104.557 C 138.254 103.551,140.725 102.238,141.130 102.238 C 141.299 102.238,142.527 101.641,143.858 100.910 C 165.253 89.167,179.323 87.357,184.937 95.625 C 187.887 99.968,191.352 111.600,191.358 117.179 C 191.358 117.903,191.429 118.064,191.747 118.064 C 192.188 118.064,194.313 117.678,194.410 117.580 C 194.527 117.463,193.464 110.552,192.515 105.254 C 190.019 91.326,190.011 91.117,191.914 89.292 C 194.378 86.927,205.663 82.905,213.988 81.424 C 218.916 80.547,223.215 79.989,225.175 79.971 C 226.576 79.959,226.604 79.948,226.254 79.561 C 224.622 77.758,219.660 77.694,209.787 79.350 C 203.943 80.330,203.602 80.434,199.570 82.481 C 194.700 84.954,193.425 84.908,194.192 82.285 C 195.712 77.090,211.828 72.400,221.551 74.323 C 222.764 74.563,222.768 74.581,221.384 73.509 C 218.536 71.302,217.803 70.793,216.033 69.790 C 208.958 65.778,200.002 63.300,192.581 63.300 C 191.203 63.300,191.091 62.943,192.269 62.310 L 192.920 61.960 191.879 61.816 C 190.504 61.625,190.240 61.633,187.194 61.963 M187.689 78.491 C 188.502 78.800,188.756 79.453,188.325 80.128 C 186.362 83.210,184.348 85.580,183.692 85.580 C 183.412 85.580,182.869 85.775,182.485 86.012 C 180.635 87.155,180.199 85.914,181.840 84.175 C 182.461 83.516,183.632 82.074,184.442 80.969 C 186.327 78.401,186.701 78.115,187.689 78.491 M223.291 80.727 C 223.045 80.775,222.677 81.000,222.472 81.226 C 221.867 81.894,222.472 82.360,223.554 82.059 C 225.152 81.615,229.470 82.099,232.622 83.074 C 236.155 84.168,241.151 91.920,243.146 99.404 C 244.797 105.597,244.816 111.685,243.215 121.291 C 242.708 124.332,242.666 124.874,242.917 125.137 C 243.706 125.964,244.103 124.474,245.284 116.241 C 246.746 106.055,243.990 92.909,239.140 86.934 C 238.489 86.132,237.589 84.985,237.140 84.383 C 235.347 81.986,227.477 79.908,223.291 80.727 M219.669 81.322 C 219.229 81.852,219.952 82.480,220.440 81.992 C 220.781 81.651,220.553 80.999,220.094 80.999 C 220.007 80.999,219.816 81.145,219.669 81.322 M220.510 82.814 C 208.163 84.200,192.816 89.480,192.816 92.342 C 192.816 92.948,194.554 103.753,194.756 104.402 C 194.788 104.503,194.816 103.473,194.818 102.111 C 194.821 100.750,194.947 99.120,195.098 98.490 C 195.250 97.860,195.463 96.975,195.572 96.523 C 195.833 95.438,197.825 93.508,199.552 92.667 C 201.633 91.653,208.777 91.323,210.158 92.176 C 210.252 92.234,211.518 92.362,212.973 92.459 C 218.586 92.838,223.056 94.902,227.379 99.113 C 228.746 100.444,229.201 101.443,229.686 104.172 C 229.914 105.456,230.305 107.303,230.555 108.277 C 231.762 112.978,230.766 119.519,228.339 122.825 L 227.584 123.854 228.617 123.996 C 230.061 124.195,230.318 124.568,229.557 125.363 L 228.961 125.985 227.160 125.849 C 225.909 125.754,225.314 125.785,225.212 125.948 C 224.966 126.346,224.119 126.211,223.794 125.723 C 223.493 125.269,223.415 125.262,219.480 125.312 L 215.472 125.363 214.271 126.420 L 213.070 127.477 213.771 128.640 C 214.156 129.280,214.472 129.973,214.472 130.180 C 214.472 130.641,214.437 130.641,218.948 130.211 C 221.400 129.977,224.889 129.865,230.297 129.846 C 239.041 129.815,238.758 129.862,239.534 128.311 C 240.880 125.623,242.749 117.204,242.158 116.493 C 242.049 116.362,240.945 115.727,239.704 115.082 C 236.467 113.400,236.046 112.171,238.197 110.680 C 239.268 109.938,239.257 109.856,238.047 109.576 C 235.179 108.914,233.685 108.008,233.502 106.819 C 233.330 105.700,233.751 105.296,235.109 105.275 L 236.231 105.258 236.296 104.465 C 236.682 99.787,233.615 90.017,229.751 83.617 C 229.290 82.853,224.142 82.406,220.510 82.814 M233.544 85.828 C 233.852 86.436,234.470 87.513,234.916 88.220 C 237.379 92.120,239.700 104.205,238.376 106.232 L 238.021 106.774 239.313 107.090 C 240.023 107.264,240.997 107.469,241.478 107.546 L 242.353 107.685 242.260 106.992 C 240.770 95.820,238.594 89.806,234.680 86.040 C 233.152 84.570,232.881 84.519,233.544 85.828 M243.086 90.485 C 243.707 92.191,243.745 92.242,244.300 92.124 C 244.686 92.042,245.102 92.143,245.574 92.435 C 245.960 92.673,246.402 92.868,246.557 92.868 C 246.856 92.868,244.449 90.334,243.190 89.323 L 242.444 88.725 243.086 90.485 M170.120 92.968 C 160.424 94.828,144.024 102.429,136.162 108.706 C 134.553 109.990,134.547 110.006,134.382 112.928 C 134.163 116.815,134.771 117.536,138.261 117.530 C 140.750 117.526,144.564 116.188,144.962 115.179 C 145.603 113.556,146.058 112.854,147.153 111.798 C 158.774 100.590,177.408 91.319,177.408 96.745 C 177.408 96.899,177.665 97.084,177.980 97.157 C 180.575 97.755,183.960 100.481,185.580 103.276 C 186.546 104.943,186.558 104.751,185.642 102.290 C 183.555 96.685,181.459 94.334,177.627 93.300 C 175.440 92.710,172.210 92.567,170.120 92.968 M134.409 94.306 C 129.531 96.464,128.169 97.431,123.029 102.384 C 120.971 104.367,120.807 104.466,120.160 104.120 C 119.093 103.549,112.300 115.071,110.499 120.506 C 109.728 122.832,108.600 127.410,108.759 127.569 C 108.805 127.615,109.326 126.990,109.917 126.180 C 113.635 121.084,114.572 120.223,115.446 121.098 C 115.910 121.562,115.859 122.001,115.128 123.836 C 113.860 127.021,113.651 128.206,113.537 132.873 C 113.404 138.288,113.289 138.096,115.800 136.625 C 116.903 135.979,118.644 135.041,119.668 134.540 C 121.855 133.472,122.275 132.875,121.647 131.728 C 121.133 130.789,121.153 123.592,121.676 121.603 C 122.804 117.314,126.013 112.956,131.360 108.454 L 132.683 107.340 133.396 104.841 C 133.789 103.467,134.727 100.843,135.482 99.011 C 136.435 96.698,136.896 95.281,136.990 94.378 C 137.065 93.662,137.123 93.084,137.121 93.092 C 137.118 93.101,135.898 93.647,134.409 94.306 M202.336 94.963 C 199.491 95.656,198.397 97.458,198.270 101.663 C 198.156 105.422,198.245 105.589,199.270 103.540 C 201.934 98.218,207.840 96.945,212.044 100.787 C 216.682 105.025,219.373 115.344,217.479 121.624 C 217.393 121.909,217.708 121.977,219.694 122.097 C 220.967 122.175,222.703 122.334,223.551 122.452 C 225.368 122.705,225.308 122.731,226.104 121.339 C 229.008 116.256,228.447 106.805,224.999 102.707 C 224.706 102.359,224.466 101.932,224.466 101.758 C 224.466 101.414,223.016 100.058,221.608 99.085 C 218.920 97.227,212.052 95.391,206.559 95.061 C 205.357 94.989,204.092 94.894,203.748 94.850 C 203.404 94.807,202.769 94.858,202.336 94.963 M245.402 97.449 C 245.640 98.967,246.299 104.281,246.439 105.814 L 246.584 107.412 248.095 107.376 L 249.606 107.340 249.299 106.299 C 248.326 103.007,245.137 95.766,245.402 97.449 M172.723 100.174 C 168.801 101.494,159.633 106.751,154.052 110.880 C 147.375 115.819,147.259 116.402,150.536 128.579 C 151.707 132.931,152.751 136.830,152.856 137.244 L 153.046 137.997 157.054 136.381 C 159.258 135.493,162.327 134.185,163.873 133.476 C 165.419 132.766,166.995 132.056,167.375 131.896 L 168.067 131.607 167.518 130.718 C 163.204 123.718,162.387 113.918,165.742 109.418 C 171.083 102.253,180.391 103.241,184.919 111.455 C 185.608 112.704,185.645 112.604,185.225 110.609 C 183.593 102.853,178.182 98.336,172.723 100.174 M250.706 112.389 C 250.704 112.647,250.796 112.858,250.911 112.858 C 251.172 112.858,251.172 112.637,250.911 112.233 C 250.748 111.981,250.709 112.011,250.706 112.389 M129.091 112.972 C 128.651 113.503,129.374 114.130,129.862 113.642 C 130.203 113.301,129.975 112.650,129.516 112.650 C 129.429 112.650,129.238 112.795,129.091 112.972 M130.483 113.911 C 127.081 117.655,125.192 121.660,125.407 124.673 C 125.577 127.059,125.602 127.089,126.770 126.358 C 132.029 123.064,134.519 121.814,136.014 121.718 C 136.967 121.658,137.253 121.528,138.124 120.759 C 139.290 119.731,139.106 119.314,137.675 119.742 C 134.663 120.645,132.067 118.296,131.822 114.447 L 131.702 112.570 130.483 113.911 M188.516 116.189 C 188.488 120.002,188.265 121.499,187.262 124.603 C 186.852 125.873,186.473 127.054,186.420 127.225 C 186.367 127.397,186.737 126.788,187.241 125.872 C 187.746 124.956,188.415 123.820,188.727 123.349 L 189.295 122.491 189.062 118.664 C 188.729 113.176,188.544 112.341,188.516 116.189 M126.318 115.560 C 123.342 118.854,121.744 126.927,123.364 130.485 C 123.945 131.761,127.724 136.831,129.673 138.948 C 132.345 141.852,135.446 144.925,135.704 144.925 C 135.847 144.925,136.605 145.416,137.387 146.018 C 139.658 147.762,141.918 148.854,142.355 148.416 C 142.823 147.948,142.544 147.634,140.902 146.783 C 135.427 143.945,127.806 135.910,124.984 130.001 C 123.330 126.536,124.278 120.952,127.270 116.542 C 128.496 114.734,127.755 113.969,126.318 115.560 M196.666 116.085 C 197.096 120.754,197.176 121.925,197.182 123.694 L 197.189 125.681 198.076 125.919 C 198.565 126.049,199.193 126.400,199.473 126.698 L 199.981 127.239 198.786 127.099 L 197.591 126.958 198.156 127.821 C 198.850 128.881,198.781 128.882,201.167 127.775 C 202.243 127.275,203.610 126.707,204.205 126.512 C 206.328 125.818,205.170 125.332,202.445 125.774 C 200.422 126.103,199.688 125.599,199.688 123.883 C 199.688 123.197,198.056 118.399,196.859 115.565 L 196.551 114.836 196.666 116.085 M251.924 115.775 C 250.299 116.633,248.420 118.963,249.062 119.323 C 249.351 119.484,249.354 119.635,249.086 120.731 C 248.793 121.931,248.805 122.040,249.642 125.809 C 250.113 127.927,250.763 131.338,251.086 133.388 C 251.656 137.002,251.757 137.216,252.057 135.452 C 252.731 131.481,255.488 128.902,258.072 129.823 L 258.883 130.112 258.742 127.680 C 258.307 120.187,256.602 115.773,254.141 115.773 C 253.954 115.773,253.859 115.679,253.930 115.565 C 254.154 115.203,252.722 115.353,251.924 115.775 M143.937 118.592 C 143.383 119.240,143.053 119.831,143.052 120.176 C 143.050 120.738,142.642 121.049,142.153 120.861 C 142.000 120.802,141.749 120.999,141.586 121.304 C 141.194 122.036,139.399 123.677,136.725 125.749 C 134.009 127.851,134.016 127.840,135.719 127.522 C 137.176 127.249,141.225 126.809,142.270 126.809 C 143.256 126.809,144.174 127.878,144.023 128.849 C 143.836 130.048,139.752 133.317,134.617 136.378 C 132.004 137.935,132.136 137.761,132.873 138.678 L 133.510 139.471 134.871 139.081 C 137.051 138.458,138.005 139.654,136.128 140.656 C 135.114 141.197,135.052 141.073,137.267 142.941 C 142.459 147.319,146.936 149.444,149.786 148.883 C 154.334 147.988,186.377 131.985,184.724 131.434 C 183.567 131.048,184.997 129.146,187.298 128.012 C 188.689 127.326,188.851 127.038,188.858 125.249 C 188.860 124.676,188.765 124.756,187.683 126.249 C 186.266 128.205,180.592 132.671,179.410 132.761 C 179.053 132.789,178.058 132.998,177.199 133.227 C 176.340 133.456,174.484 133.891,173.074 134.194 C 171.664 134.497,170.352 134.787,170.159 134.839 C 169.966 134.892,170.370 134.650,171.057 134.302 C 172.422 133.612,171.860 133.645,170.283 134.348 C 169.744 134.589,169.360 134.879,169.431 134.994 C 169.502 135.110,169.455 135.138,169.325 135.057 C 169.196 134.978,168.809 135.058,168.466 135.236 C 168.122 135.414,167.159 135.804,166.325 136.103 C 165.492 136.402,163.557 137.206,162.026 137.890 C 160.494 138.575,158.599 139.313,157.814 139.530 C 157.029 139.748,155.517 140.301,154.455 140.759 C 152.124 141.765,150.613 141.903,150.466 141.124 C 150.279 140.131,148.257 132.041,147.825 130.557 C 147.575 129.698,147.060 128.011,146.681 126.808 C 146.064 124.846,145.455 121.935,144.985 118.696 L 144.820 117.559 143.937 118.592 M193.753 120.290 C 193.295 120.464,192.604 120.655,192.217 120.714 L 191.514 120.822 191.657 121.994 C 191.736 122.638,191.790 123.259,191.777 123.373 C 191.596 124.955,191.565 126.181,191.705 126.168 C 191.801 126.159,192.535 126.037,193.337 125.897 L 194.794 125.642 194.850 123.987 C 194.880 123.077,194.833 121.802,194.746 121.153 L 194.586 119.974 193.753 120.290 M245.111 123.474 C 244.852 124.276,243.983 126.268,243.178 127.901 C 240.694 132.941,240.669 132.955,234.045 132.941 C 227.575 132.927,221.269 132.747,220.977 132.567 C 220.849 132.487,219.426 132.532,217.816 132.667 L 214.888 132.913 214.888 134.709 C 214.888 137.231,213.968 142.660,213.317 143.981 C 213.032 144.557,212.843 144.871,212.895 144.679 C 213.421 142.740,213.130 142.212,212.428 143.831 C 211.298 146.438,207.831 153.186,207.814 152.811 C 207.811 152.740,207.942 152.303,208.105 151.841 C 208.268 151.379,208.354 150.953,208.296 150.896 C 208.150 150.749,209.397 145.280,209.895 143.883 C 210.919 141.010,211.292 134.793,210.538 133.160 C 209.297 130.469,206.243 129.971,201.026 131.606 C 200.675 131.716,199.863 131.806,199.223 131.806 C 197.688 131.806,195.567 132.227,192.485 133.141 C 189.985 133.884,188.612 134.054,188.043 133.694 C 187.535 133.373,180.794 136.929,172.936 141.662 C 163.298 147.467,158.784 150.053,155.128 151.863 L 152.108 153.358 149.187 153.358 L 146.265 153.358 144.389 152.407 C 141.080 150.730,135.064 146.566,132.364 144.084 L 130.944 142.778 129.761 143.260 C 127.796 144.061,123.686 146.164,123.686 146.369 C 123.686 146.620,124.285 147.215,124.538 147.215 C 124.647 147.215,124.836 147.435,124.959 147.705 L 125.182 148.195 128.338 146.752 C 130.074 145.959,131.736 145.261,132.033 145.202 C 132.911 145.026,133.576 145.986,133.097 146.739 C 132.950 146.970,127.536 149.464,126.442 149.805 C 124.451 150.425,125.999 157.767,130.897 170.931 C 131.735 173.184,134.392 178.735,134.197 177.824 C 134.135 177.538,133.954 176.788,133.793 176.158 C 133.633 175.528,133.443 174.685,133.371 174.284 L 133.240 173.555 133.616 174.025 C 133.823 174.283,134.268 175.173,134.604 176.003 C 139.005 186.857,143.534 193.719,150.035 199.379 C 153.625 202.505,153.643 202.518,154.575 202.665 C 155.477 202.807,156.448 203.509,159.991 206.577 C 162.779 208.992,162.553 208.931,163.700 207.574 C 165.388 205.577,167.692 203.227,167.963 203.227 C 168.111 203.227,168.915 202.635,169.749 201.910 C 175.653 196.781,182.032 192.498,188.964 189.008 C 190.453 188.258,192.421 187.212,193.337 186.683 C 194.253 186.154,196.300 185.061,197.887 184.254 L 200.771 182.786 202.988 183.033 C 206.054 183.374,207.136 183.783,211.566 186.273 C 213.690 187.467,215.592 188.444,215.791 188.444 C 215.991 188.444,217.189 188.870,218.453 189.391 C 219.717 189.912,223.110 191.135,225.993 192.110 C 231.965 194.128,232.488 194.390,234.151 196.186 C 238.469 200.850,236.756 206.857,229.550 212.327 C 227.892 213.586,225.813 215.679,226.017 215.884 C 226.075 215.941,228.022 214.723,230.344 213.176 C 232.666 211.629,235.286 209.926,236.167 209.391 C 237.081 208.836,237.830 208.227,237.911 207.974 C 237.988 207.729,238.382 207.013,238.785 206.382 C 241.050 202.842,243.048 196.940,246.444 183.758 C 248.030 177.602,249.905 168.003,249.583 167.682 C 249.527 167.625,249.416 167.920,249.338 168.338 C 249.020 170.034,249.070 168.746,249.457 165.318 C 250.110 159.517,250.213 155.754,249.772 153.771 C 249.495 152.526,249.428 151.550,249.503 149.822 C 249.795 143.056,248.815 135.500,246.268 124.881 L 245.580 122.015 245.111 123.474 M242.020 126.028 C 241.329 126.786,239.667 129.781,239.667 130.267 C 239.667 131.501,241.248 131.002,241.669 129.635 C 241.742 129.398,242.125 128.519,242.520 127.682 C 243.093 126.467,243.187 126.099,242.988 125.860 C 242.653 125.456,242.520 125.479,242.020 126.028 M78.926 126.584 C 78.805 126.811,78.771 127.412,78.848 127.975 C 79.001 129.090,79.175 128.846,79.422 127.173 C 79.574 126.136,79.325 125.839,78.926 126.584 M193.135 128.129 C 191.636 128.740,191.463 128.870,191.340 129.472 C 191.265 129.838,191.087 130.278,190.945 130.449 C 190.789 130.637,191.210 130.524,192.012 130.163 C 192.741 129.834,193.899 129.395,194.586 129.187 C 195.273 128.979,195.862 128.793,195.894 128.774 C 196.033 128.692,195.191 127.437,195.003 127.445 C 194.888 127.449,194.048 127.757,193.135 128.129 M255.901 132.413 C 254.701 133.675,254.221 135.319,254.090 138.616 L 253.981 141.365 254.540 142.029 C 255.328 142.966,256.094 144.536,256.750 146.563 L 257.315 148.305 257.555 146.928 C 258.255 142.908,258.824 137.000,258.824 133.753 L 258.824 132.034 258.043 131.817 C 256.874 131.493,256.742 131.529,255.901 132.413 M134.305 132.955 C 133.790 133.232,133.040 133.748,132.639 134.102 L 131.910 134.744 132.743 134.333 C 133.710 133.857,135.756 132.426,135.450 132.441 C 135.335 132.446,134.820 132.677,134.305 132.955 M127.017 139.985 C 124.760 141.293,122.229 142.898,122.235 143.017 C 122.239 143.093,122.358 143.363,122.500 143.617 L 122.757 144.080 123.377 143.654 C 123.934 143.272,128.036 141.166,128.721 140.910 C 128.912 140.838,128.807 140.619,128.371 140.185 L 127.746 139.562 127.017 139.985 M107.052 144.017 C 101.990 146.703,104.425 157.444,112.331 167.314 C 113.952 169.337,121.188 177.059,121.330 176.918 C 121.377 176.870,121.305 176.193,121.169 175.412 C 120.503 171.589,121.808 165.797,123.693 164.211 L 124.345 163.663 123.567 162.258 C 119.707 155.295,110.674 153.438,110.145 159.500 C 109.987 161.300,109.463 160.373,109.438 158.251 C 109.357 151.337,119.666 152.505,124.618 159.972 C 125.638 161.509,125.637 161.512,124.926 158.596 C 124.595 157.241,124.129 155.180,123.891 154.016 C 123.318 151.224,123.374 151.350,122.797 151.569 C 121.635 152.011,121.198 150.894,122.220 150.093 L 122.836 149.610 122.297 148.419 C 121.822 147.370,121.711 147.254,121.360 147.442 C 120.337 147.990,119.744 146.925,120.531 145.953 C 121.357 144.933,120.462 143.967,119.317 144.643 C 118.752 144.976,118.712 144.968,117.785 144.302 L 116.833 143.618 112.503 143.520 L 108.173 143.422 107.052 144.017 M252.677 145.133 C 252.733 145.763,252.924 148.246,253.100 150.651 C 253.276 153.056,253.474 155.618,253.538 156.346 L 253.656 157.668 254.239 157.109 C 255.575 155.829,254.985 149.004,253.219 145.329 L 252.575 143.988 252.677 145.133 M143.047 148.989 C 142.616 149.508,145.654 152.024,146.248 151.639 C 146.379 151.554,147.482 151.517,148.699 151.558 C 150.111 151.604,150.961 151.551,151.048 151.410 C 151.123 151.289,151.307 151.236,151.457 151.294 C 151.607 151.351,151.853 151.249,152.005 151.066 C 152.338 150.664,151.807 149.970,151.372 150.239 C 150.481 150.789,146.207 150.138,144.624 149.211 C 143.555 148.585,143.401 148.563,143.047 148.989 M226.653 164.780 C 227.111 164.765,228.188 164.729,229.047 164.701 C 231.249 164.629,232.307 164.958,232.731 165.846 C 233.873 168.241,230.322 169.657,225.351 168.790 C 222.775 168.341,222.114 168.362,219.324 168.988 C 211.830 170.669,198.862 176.303,189.485 181.951 C 184.654 184.861,178.897 188.853,179.511 188.867 C 179.967 188.877,178.693 189.901,178.224 189.901 C 177.994 189.901,177.715 189.682,177.587 189.400 C 176.401 186.798,186.728 178.016,197.189 172.730 C 206.413 168.069,213.992 165.539,221.447 164.633 C 221.791 164.591,222.915 164.613,223.946 164.683 C 224.977 164.752,226.195 164.796,226.653 164.780 M126.130 166.632 C 125.192 167.346,124.398 173.283,124.912 175.744 C 125.391 178.038,127.486 179.885,129.984 180.217 C 130.900 180.338,131.467 180.034,130.632 179.870 C 130.432 179.830,130.174 179.413,130.010 178.865 C 129.632 177.600,129.650 177.427,130.141 177.555 C 130.370 177.615,130.557 177.602,130.557 177.527 C 130.557 177.091,127.625 167.739,127.456 167.635 C 127.343 167.565,127.154 167.253,127.035 166.940 C 126.795 166.307,126.631 166.251,126.130 166.632 M200.758 187.199 C 195.183 189.161,188.178 193.249,179.906 199.367 C 178.017 200.764,175.387 202.707,174.063 203.683 C 171.109 205.860,163.496 212.917,162.472 214.428 L 162.148 214.905 161.697 214.481 L 161.245 214.057 160.237 215.430 C 157.695 218.893,157.509 223.194,159.782 225.982 C 161.300 227.843,161.808 229.472,161.111 230.243 C 160.724 230.670,161.399 236.115,162.221 239.190 C 163.190 242.819,165.399 249.994,165.637 250.286 C 165.777 250.458,166.058 251.208,166.261 251.952 C 166.464 252.697,166.759 253.490,166.917 253.716 C 167.075 253.942,167.205 254.346,167.205 254.613 C 167.205 254.881,167.486 256.213,167.829 257.574 C 168.173 258.935,168.454 260.414,168.454 260.861 C 168.454 261.307,168.876 263.304,169.391 265.298 C 172.004 275.401,172.386 277.781,172.180 282.665 C 172.156 283.238,172.175 284.330,172.221 285.092 C 172.316 286.647,172.541 286.227,169.547 290.112 C 167.714 292.492,167.715 292.272,169.536 293.285 C 171.490 294.371,174.049 296.260,175.742 297.864 C 176.572 298.651,177.538 299.332,178.240 299.626 C 183.634 301.880,187.227 304.289,192.665 309.296 C 194.357 310.854,195.815 312.129,195.904 312.129 C 196.163 312.129,197.973 314.664,199.905 317.735 C 200.883 319.290,201.773 320.562,201.883 320.562 C 202.149 320.562,202.528 315.608,202.803 308.521 C 203.034 302.550,203.321 300.760,204.145 300.148 C 204.305 300.029,204.469 299.710,204.509 299.440 C 204.561 299.085,205.033 298.669,206.207 297.941 C 210.142 295.503,213.459 292.512,216.521 288.643 C 218.618 285.993,218.525 286.370,218.529 280.479 C 218.533 274.421,218.163 271.864,217.693 274.702 C 217.413 276.395,217.034 276.014,216.991 273.995 C 216.971 273.076,216.938 273.023,216.294 272.902 C 215.308 272.717,213.331 271.737,210.271 269.919 C 206.894 267.911,206.143 267.219,206.143 266.114 C 206.143 265.668,206.043 265.241,205.921 265.166 C 204.863 264.512,204.524 263.460,204.633 261.166 L 204.739 258.921 203.977 257.408 C 202.796 255.062,202.534 253.770,202.817 251.698 C 203.150 249.267,203.138 249.261,203.861 252.160 C 204.313 253.969,205.049 255.909,205.283 255.907 C 205.355 255.906,205.834 254.571,206.348 252.940 C 207.407 249.574,208.078 248.089,208.684 247.765 C 209.611 247.269,209.561 247.833,208.159 253.760 C 206.370 261.325,206.427 260.955,206.939 261.783 C 208.073 263.617,212.227 267.180,214.636 268.384 C 217.659 269.896,219.776 270.148,220.806 269.117 C 220.979 268.944,221.540 268.676,222.053 268.522 C 223.891 267.969,226.080 266.334,227.184 264.690 C 228.444 262.813,227.844 260.194,224.671 253.722 C 221.827 247.921,221.238 245.662,222.257 244.461 C 222.568 244.096,222.362 240.393,221.976 239.375 C 221.082 237.025,218.808 234.776,216.169 233.631 C 209.198 230.607,204.094 229.309,201.481 229.893 C 200.129 230.196,199.688 229.985,199.688 229.037 C 199.688 225.952,209.464 226.931,218.277 230.898 C 220.883 232.072,224.309 235.536,224.801 237.495 C 225.226 239.187,225.630 236.053,225.447 232.490 C 225.082 225.400,221.173 220.493,212.898 216.741 C 211.446 216.083,211.454 216.093,211.772 215.499 C 212.038 215.003,212.225 215.002,208.696 215.502 C 199.496 216.804,189.322 217.777,188.556 217.428 C 188.136 217.237,187.726 217.254,186.625 217.510 C 185.011 217.884,179.542 218.633,178.412 218.635 C 176.018 218.639,176.502 216.083,179.140 214.794 C 181.198 213.788,187.527 214.202,188.886 215.432 C 189.223 215.737,189.432 215.704,191.503 215.023 C 192.740 214.616,194.336 214.136,195.048 213.957 C 196.585 213.570,198.214 212.637,198.224 212.139 C 198.227 211.944,198.468 211.616,198.759 211.410 C 199.050 211.204,199.869 210.580,200.581 210.022 C 202.876 208.222,202.831 208.228,205.113 209.438 C 207.322 210.609,209.486 211.348,211.036 211.460 C 213.715 211.655,214.279 211.791,214.992 212.417 C 215.970 213.276,216.669 213.427,218.570 213.192 C 221.502 212.830,224.152 211.909,225.645 210.735 C 225.944 210.500,226.421 210.307,226.705 210.307 C 227.815 210.307,229.710 207.459,230.305 204.894 C 230.451 204.265,230.790 203.337,231.059 202.833 C 232.680 199.783,231.796 199.073,221.551 195.197 C 217.386 193.621,217.005 193.448,209.213 189.616 C 205.805 187.941,202.900 186.573,202.758 186.578 C 202.615 186.583,201.715 186.862,200.758 187.199 M140.552 197.380 C 140.552 198.190,140.787 198.438,141.552 198.438 L 142.299 198.438 141.593 197.710 C 140.791 196.883,140.552 196.807,140.552 197.380 M150.856 212.149 C 150.969 212.522,150.864 212.786,150.411 213.270 L 149.818 213.904 150.807 213.775 C 152.184 213.596,152.052 213.887,150.286 214.918 C 149.456 215.403,148.730 215.838,148.673 215.883 C 148.364 216.130,151.427 218.624,152.554 219.043 C 153.225 219.292,154.082 219.676,154.458 219.897 C 154.954 220.186,155.162 220.226,155.212 220.039 C 155.250 219.897,155.563 219.009,155.907 218.064 L 156.533 216.347 155.793 215.890 C 154.912 215.346,152.882 213.705,151.617 212.515 C 150.854 211.797,150.732 211.738,150.856 212.149 M196.460 228.411 C 199.666 228.939,200.397 229.606,199.145 230.858 L 198.602 231.401 194.872 231.261 C 190.837 231.110,187.402 231.385,187.402 231.860 C 187.402 232.141,185.843 232.870,184.745 233.102 C 183.603 233.344,182.405 235.482,182.405 237.280 C 182.405 238.154,181.798 238.834,181.016 238.834 C 178.942 238.834,179.163 231.942,181.260 231.230 C 181.974 230.987,183.553 230.005,183.756 229.677 C 184.169 229.008,186.572 228.214,189.068 227.922 C 190.421 227.763,193.946 227.996,196.460 228.411 M161.652 260.226 C 158.701 264.324,157.002 267.478,157.002 268.859 C 157.002 270.164,156.068 269.779,155.763 268.349 L 155.620 267.673 155.165 268.550 C 154.590 269.660,154.593 270.033,155.180 270.257 C 157.951 271.314,163.612 280.605,165.070 286.488 C 165.385 287.760,165.702 288.802,165.774 288.804 C 166.001 288.811,167.621 286.597,167.621 286.281 C 167.621 285.882,165.937 281.458,165.343 280.293 C 165.038 279.698,164.910 279.153,164.974 278.731 C 165.111 277.835,166.478 272.811,166.796 272.035 C 167.026 271.475,166.981 271.166,166.418 269.417 C 166.067 268.327,165.716 267.067,165.638 266.617 C 165.560 266.167,165.178 264.191,164.789 262.226 C 164.400 260.261,164.081 258.588,164.081 258.508 C 164.081 258.428,163.925 258.423,163.733 258.496 C 163.542 258.569,163.325 258.531,163.251 258.411 C 163.177 258.291,162.457 259.108,161.652 260.226 M251.640 274.564 C 244.405 275.001,237.672 275.909,237.869 276.421 C 237.943 276.614,237.709 276.741,237.103 276.839 C 236.624 276.916,235.921 277.157,235.542 277.375 C 234.673 277.876,234.669 277.876,234.669 277.251 C 234.669 276.928,234.551 276.731,234.357 276.731 C 233.873 276.731,233.936 283.817,234.471 289.545 C 234.706 292.057,234.854 294.301,234.801 294.531 C 234.748 294.762,234.792 295.419,234.900 295.992 C 235.007 296.564,235.180 298.907,235.283 301.197 C 235.386 303.488,235.617 306.299,235.797 307.444 C 235.977 308.589,236.132 310.744,236.141 312.233 C 236.150 313.722,236.242 315.455,236.345 316.085 C 236.448 316.715,236.770 319.901,237.062 323.165 C 238.440 338.608,239.185 345.482,241.646 365.435 C 244.328 387.183,244.710 391.688,243.852 391.504 C 243.615 391.454,243.586 391.705,243.695 392.858 C 243.768 393.637,243.829 395.562,243.830 397.137 L 243.831 400.000 281.175 400.000 L 318.518 400.000 318.659 394.430 C 318.736 391.366,319.007 385.159,319.260 380.635 C 320.682 355.240,319.505 330.737,316.065 314.155 C 315.608 311.953,315.091 309.401,314.915 308.485 C 314.740 307.569,314.555 306.609,314.504 306.351 C 314.433 305.989,314.269 305.882,313.784 305.882 C 312.383 305.882,313.051 304.502,314.687 304.019 C 315.564 303.759,316.294 303.267,316.294 302.935 C 316.294 302.615,315.676 302.752,315.265 303.162 C 315.022 303.406,314.832 303.474,314.785 303.335 C 314.743 303.208,313.653 304.016,312.364 305.131 C 310.038 307.141,309.573 307.362,309.135 306.666 C 308.752 306.058,309.537 304.954,312.294 302.217 C 315.639 298.898,315.632 298.851,311.296 295.734 C 308.338 293.607,306.062 291.681,302.992 288.705 C 301.574 287.330,300.309 286.104,300.180 285.981 C 299.862 285.676,297.379 284.852,296.780 284.852 C 296.514 284.852,295.911 284.609,295.441 284.312 C 294.971 284.016,294.118 283.634,293.546 283.464 C 292.275 283.086,289.621 282.038,284.988 280.084 C 283.059 279.271,281.271 278.605,281.015 278.605 C 280.760 278.605,279.975 278.371,279.272 278.085 C 273.010 275.541,260.938 274.002,251.640 274.564 M157.731 278.345 C 157.953 278.887,160.846 287.709,161.191 288.897 C 161.477 289.879,162.925 290.867,163.393 290.399 C 163.574 290.218,161.900 285.496,160.885 283.323 C 159.744 280.881,156.988 276.532,157.731 278.345 M151.365 280.994 C 142.874 282.042,129.087 287.513,116.457 294.846 L 113.913 296.323 114.407 297.407 C 114.679 298.003,116.438 301.723,118.316 305.674 C 120.194 309.625,122.372 314.270,123.156 315.996 L 124.582 319.134 126.788 318.150 C 130.949 316.296,135.878 314.809,139.830 314.215 C 142.189 313.861,142.052 313.985,141.585 312.627 C 140.954 310.793,141.088 309.555,141.991 308.853 C 142.315 308.602,144.906 308.622,149.349 308.911 C 151.046 309.021,151.531 308.595,150.703 307.719 C 150.560 307.568,150.428 306.976,150.410 306.403 C 150.392 305.830,150.340 304.706,150.294 303.904 C 149.394 288.359,149.221 288.921,154.867 289.051 C 156.499 289.089,157.830 289.073,157.824 289.016 C 157.819 288.959,157.186 287.085,156.419 284.852 L 155.023 280.791 154.295 280.757 C 153.894 280.738,152.575 280.845,151.365 280.994 M264.341 294.866 C 269.948 295.306,280.834 297.450,291.202 300.157 C 293.149 300.665,295.398 301.189,296.200 301.321 C 297.002 301.453,297.757 301.640,297.879 301.737 C 298.642 302.343,297.781 336.305,296.878 341.177 L 296.183 344.925 294.354 347.477 C 291.786 351.058,287.388 354.405,281.416 357.325 C 271.493 362.176,264.620 362.311,252.496 357.892 C 250.530 357.175,250.165 357.100,249.744 357.325 C 249.359 357.532,249.196 357.532,248.949 357.327 C 248.127 356.645,245.749 349.188,245.193 345.549 C 245.036 344.518,244.624 342.551,244.278 341.176 C 242.483 334.050,240.410 323.097,239.653 316.739 C 239.059 311.753,238.697 296.856,239.154 296.159 C 239.504 295.625,240.118 295.532,240.472 295.959 C 240.665 296.191,240.993 296.174,242.424 295.860 C 248.454 294.535,255.849 294.199,264.341 294.866 M247.437 297.984 C 246.270 298.074,244.323 298.295,243.110 298.475 C 241.896 298.655,240.813 298.803,240.702 298.803 C 239.638 298.803,241.924 317.725,244.374 329.204 C 245.934 336.510,249.964 351.733,250.734 353.223 C 251.227 354.178,251.717 354.433,255.365 355.633 C 268.720 360.023,279.074 357.897,292.035 348.100 L 293.493 346.999 293.543 345.025 C 293.632 341.518,294.208 334.429,294.870 328.675 C 295.225 325.587,295.524 322.592,295.533 322.020 C 295.547 321.109,295.315 305.161,295.277 304.477 C 295.252 304.013,294.444 303.384,293.874 303.384 C 293.568 303.384,293.151 303.233,292.948 303.049 C 292.721 302.844,291.915 302.642,290.850 302.525 C 288.345 302.249,284.580 301.624,279.125 300.578 C 272.665 299.340,268.527 298.657,265.903 298.396 C 259.953 297.804,252.063 297.628,247.437 297.984 M139.615 317.048 C 136.811 317.554,133.779 318.359,129.843 319.642 C 127.773 320.317,125.993 320.847,125.887 320.820 C 125.728 320.779,125.264 321.949,125.410 322.021 C 125.435 322.034,126.111 322.312,126.913 322.640 C 131.658 324.580,137.046 327.827,137.829 329.219 C 138.683 330.739,139.307 331.179,140.995 331.450 C 141.839 331.586,142.756 331.760,143.032 331.837 L 143.535 331.977 143.392 327.364 C 143.259 323.064,143.026 319.698,142.717 317.595 C 142.565 316.559,142.442 316.538,139.615 317.048 M141.697 333.140 L 140.656 333.264 142.086 334.055 C 142.873 334.489,143.562 334.800,143.617 334.745 C 143.878 334.484,143.416 332.953,143.084 332.984 C 142.894 333.002,142.270 333.073,141.697 333.140 " stroke="none" fill="#ddcbbc" fill-rule="evenodd"></path><path id="path1" d="M164.081 15.007 C 152.852 16.245,142.340 19.918,133.931 25.543 C 128.835 28.952,128.501 29.348,127.106 33.646 C 126.619 35.144,125.264 38.424,124.094 40.934 C 121.704 46.058,119.469 51.135,118.236 54.243 C 117.781 55.388,117.025 57.028,116.555 57.887 C 114.039 62.481,109.110 72.553,109.110 73.098 C 109.110 73.570,108.748 74.100,107.521 75.428 C 90.834 93.490,80.052 115.169,78.686 133.406 C 77.003 155.880,90.251 172.767,109.682 172.916 L 112.649 172.939 114.576 174.837 C 115.635 175.881,116.602 176.697,116.724 176.650 C 116.847 176.604,117.268 176.800,117.661 177.088 C 120.756 179.352,123.626 181.055,126.054 182.068 C 126.638 182.312,126.797 182.329,126.631 182.129 C 126.442 181.901,126.605 181.890,127.564 182.064 C 128.653 182.261,130.659 182.077,131.601 181.694 C 131.846 181.594,132.120 182.123,132.850 184.109 C 134.976 189.897,136.608 192.637,139.969 196.064 L 142.236 198.375 140.405 198.505 C 135.861 198.830,128.770 201.469,121.795 205.431 C 119.771 206.581,118.109 207.392,117.776 207.392 C 115.674 207.392,115.101 209.233,116.679 210.920 C 118.769 213.154,120.019 221.699,120.564 237.480 C 120.678 240.802,120.831 244.232,120.903 245.104 L 121.034 246.689 113.979 246.831 C 90.670 247.302,78.695 249.614,65.279 256.233 C 59.828 258.922,51.102 264.546,51.307 265.238 C 51.636 266.346,51.670 266.736,51.441 266.736 C 50.605 266.736,43.580 270.663,39.979 273.143 C 29.894 280.091,27.663 285.261,28.765 299.139 C 28.971 301.730,28.956 302.432,28.657 304.272 C 26.681 316.428,27.691 331.341,31.356 344.139 C 32.840 349.318,36.841 360.673,38.299 363.844 C 38.766 364.858,39.030 365.645,38.887 365.592 C 34.477 363.964,34.879 365.525,39.625 368.454 C 40.647 369.085,41.593 369.864,42.027 370.432 L 42.742 371.369 42.626 373.868 C 42.562 375.242,42.325 377.538,42.099 378.969 C 41.192 384.710,40.881 392.290,41.319 397.970 L 41.476 400.000 43.243 400.000 L 45.010 400.000 44.887 399.427 C 44.820 399.112,44.625 397.262,44.455 395.315 C 44.122 391.521,43.840 380.999,44.134 383.342 C 44.227 384.086,44.373 386.710,44.458 389.172 C 44.591 392.982,44.668 393.711,44.977 394.066 C 45.176 394.295,45.400 394.904,45.475 395.419 C 45.550 395.934,45.759 397.176,45.940 398.178 L 46.269 400.000 124.422 400.000 C 198.674 400.000,202.580 399.982,202.680 399.636 C 203.469 396.905,205.608 382.480,206.177 376.054 C 206.577 371.541,206.517 359.272,206.076 355.312 L 205.725 352.166 207.131 350.702 C 209.084 348.668,213.358 345.949,215.877 345.139 C 217.085 344.750,217.595 344.203,217.595 343.296 C 217.595 342.425,214.240 336.958,210.457 331.665 C 205.684 324.987,205.902 325.610,206.820 321.291 C 208.130 315.131,208.223 309.148,207.021 308.262 C 206.685 308.014,206.845 306.715,207.212 306.715 C 207.664 306.715,209.046 302.477,209.055 301.065 C 209.057 300.616,209.408 300.256,210.984 299.088 C 216.740 294.819,220.765 290.824,221.191 288.957 C 221.445 287.844,221.777 287.190,222.824 285.737 C 224.303 283.687,224.196 284.313,223.939 279.222 L 223.796 276.404 224.993 275.382 C 225.651 274.820,227.035 273.371,228.070 272.162 C 230.085 269.806,230.213 269.691,230.353 270.108 C 230.403 270.258,230.412 270.179,230.372 269.933 C 230.332 269.687,230.477 269.266,230.694 268.998 L 231.089 268.511 231.214 269.497 C 231.282 270.040,231.391 270.906,231.455 271.423 C 231.546 272.156,231.501 272.389,231.247 272.486 C 230.882 272.626,230.845 273.261,231.055 275.745 C 231.157 276.951,231.254 277.295,231.471 277.211 C 231.868 277.059,231.846 278.271,231.441 278.889 C 230.744 279.954,230.630 286.497,231.263 289.224 C 231.329 289.511,231.463 291.853,231.560 294.430 C 231.672 297.402,231.888 299.990,232.152 301.510 C 232.381 302.827,232.950 308.027,233.417 313.066 C 235.099 331.204,236.627 343.831,239.586 364.051 C 240.597 370.964,240.684 372.557,239.777 367.580 C 239.060 363.640,238.951 363.434,238.879 365.877 C 238.835 367.355,239.009 369.134,239.542 372.645 C 241.202 383.596,241.537 386.930,241.686 394.014 L 241.812 400.000 242.853 400.000 L 243.894 400.000 243.780 395.738 C 243.695 392.591,243.728 391.489,243.905 391.522 C 244.676 391.667,244.180 385.959,241.644 365.539 C 239.240 346.171,238.326 337.687,237.077 323.110 C 236.795 319.815,236.504 317.023,236.431 316.905 C 236.358 316.786,236.218 314.703,236.121 312.275 C 236.023 309.847,235.838 307.345,235.709 306.715 C 235.580 306.085,235.389 303.649,235.285 301.301 C 235.182 298.954,235.005 296.536,234.894 295.929 C 234.782 295.321,234.736 294.707,234.791 294.564 C 234.846 294.421,234.700 292.215,234.468 289.661 C 233.937 283.836,233.876 276.731,234.357 276.731 C 234.551 276.731,234.669 276.927,234.669 277.248 L 234.669 277.765 235.450 277.366 C 235.880 277.146,236.574 276.904,236.993 276.829 C 237.457 276.745,237.791 276.553,237.848 276.336 C 237.948 275.950,239.797 275.655,246.642 274.931 C 250.796 274.492,261.827 274.426,264.966 274.822 C 270.198 275.481,275.391 276.639,278.738 277.892 C 279.784 278.284,280.830 278.605,281.060 278.605 C 281.291 278.605,283.059 279.271,284.988 280.084 C 289.621 282.038,292.275 283.086,293.546 283.464 C 294.118 283.634,294.971 284.016,295.441 284.312 C 295.911 284.609,296.514 284.852,296.780 284.852 C 297.375 284.852,299.856 285.674,300.189 285.981 C 300.322 286.104,301.306 287.059,302.376 288.102 C 305.778 291.420,307.363 292.780,310.748 295.289 C 315.794 299.029,315.752 298.838,312.278 302.271 C 309.512 305.005,308.755 306.063,309.135 306.666 C 309.570 307.356,310.015 307.143,312.353 305.122 C 313.646 304.004,314.739 303.197,314.783 303.328 C 314.833 303.478,315.011 303.417,315.265 303.162 C 315.676 302.752,316.294 302.615,316.294 302.935 C 316.294 303.253,315.580 303.743,314.732 304.008 C 313.166 304.497,312.456 305.555,313.535 305.792 C 314.552 306.015,314.628 306.070,314.628 306.590 C 314.628 306.872,315.089 309.334,315.653 312.062 C 317.772 322.311,318.600 328.673,319.458 341.281 C 319.927 348.174,319.816 370.845,319.266 380.739 C 319.011 385.320,318.738 391.528,318.661 394.534 L 318.519 400.000 342.786 400.000 L 367.052 400.000 367.177 399.531 C 368.439 394.825,365.362 378.159,361.692 369.819 C 360.959 368.154,360.890 367.821,360.679 364.912 C 360.136 357.441,359.936 350.793,360.206 349.186 C 361.110 343.810,361.508 340.317,361.690 336.158 C 361.826 333.054,361.994 331.265,362.206 330.666 C 362.378 330.176,362.520 329.389,362.521 328.917 C 362.527 326.596,365.825 314.867,367.324 311.836 C 368.322 309.819,368.211 309.000,366.632 306.730 C 361.844 299.848,360.140 297.438,358.687 295.491 C 357.042 293.287,357.039 293.282,356.566 290.977 C 354.423 280.553,351.854 275.273,348.926 275.273 C 348.531 275.273,348.319 275.025,347.826 273.983 C 345.310 268.668,334.369 259.656,330.433 259.656 C 329.394 259.656,329.537 259.335,330.717 259.017 C 331.794 258.727,331.598 258.536,329.225 257.563 C 326.202 256.324,324.703 255.599,320.287 253.246 C 309.127 247.300,302.537 245.300,287.906 243.421 C 280.138 242.423,268.887 241.934,267.811 242.547 C 267.098 242.953,267.096 242.910,267.677 239.645 C 268.637 234.241,268.627 231.469,267.644 230.300 C 267.338 229.937,267.163 229.529,267.233 229.345 C 267.850 227.738,265.400 226.750,264.736 228.338 L 264.441 229.046 259.081 229.033 C 256.134 229.025,253.166 229.117,252.485 229.237 C 251.805 229.357,251.211 229.417,251.164 229.370 C 251.052 229.258,256.242 218.191,258.943 212.783 C 261.340 207.985,263.567 204.018,265.745 200.670 C 267.981 197.234,268.094 196.758,267.114 194.888 C 266.320 193.374,265.976 193.154,264.341 193.115 C 263.654 193.099,261.921 192.938,260.489 192.758 C 259.058 192.578,255.861 192.364,253.385 192.283 L 248.884 192.135 249.276 190.862 C 250.666 186.355,251.778 180.943,252.277 176.263 C 252.617 173.072,252.756 172.417,252.823 173.677 C 252.844 174.068,252.914 172.880,252.979 171.036 C 253.049 169.062,253.193 167.564,253.330 167.392 C 253.458 167.232,253.628 166.588,253.708 165.962 C 253.819 165.087,254.117 164.406,254.993 163.024 C 255.620 162.035,256.443 160.439,256.823 159.478 C 257.202 158.517,258.012 156.669,258.623 155.372 C 259.331 153.867,259.653 152.962,259.512 152.873 C 259.363 152.778,259.454 152.093,259.794 150.755 C 260.345 148.591,261.146 144.130,261.572 140.864 C 261.880 138.495,261.945 127.945,261.668 125.146 L 261.493 123.379 261.918 123.763 C 262.412 124.211,262.872 123.590,265.677 118.691 C 277.919 97.312,279.906 75.875,271.030 60.930 C 260.794 43.694,234.344 30.685,208.245 30.049 L 203.163 29.925 202.357 29.197 C 201.914 28.796,200.265 27.607,198.693 26.555 C 197.121 25.502,194.336 23.631,192.504 22.396 C 183.254 16.164,174.419 13.867,164.081 15.007 M174.388 17.915 C 180.989 18.535,190.957 23.011,198.692 28.828 L 200.092 29.880 198.901 30.022 C 198.246 30.100,196.398 30.268,194.794 30.395 C 177.733 31.748,157.909 38.374,140.677 48.484 C 139.086 49.418,137.652 50.182,137.492 50.182 C 136.794 50.182,125.109 56.895,120.379 60.012 C 119.534 60.570,118.815 60.998,118.781 60.964 C 118.748 60.931,119.469 59.405,120.385 57.573 C 122.170 54.002,122.629 52.965,122.177 53.526 C 120.670 55.398,120.691 55.390,121.486 53.779 C 121.894 52.952,122.228 52.127,122.228 51.946 C 122.228 51.463,123.082 49.540,126.338 42.686 C 127.943 39.308,129.515 35.747,129.831 34.774 C 130.994 31.197,132.252 29.913,137.812 26.624 C 147.939 20.634,163.614 16.902,174.388 17.915 M214.368 32.894 C 240.966 35.814,264.504 49.888,271.293 66.932 C 277.123 81.570,273.486 101.988,261.709 120.738 L 261.141 121.643 260.912 120.738 C 260.002 117.134,258.524 114.529,257.026 113.887 C 256.496 113.660,255.775 113.232,255.423 112.936 C 254.858 112.461,254.637 112.407,253.524 112.477 L 252.264 112.555 252.234 110.468 C 252.183 106.963,250.928 102.038,249.053 97.978 L 248.253 96.248 249.263 96.151 C 251.445 95.941,251.501 94.964,249.468 92.581 C 244.435 86.685,237.332 80.611,233.004 78.502 C 232.308 78.163,231.826 77.688,231.132 76.659 C 229.584 74.363,226.297 71.127,223.946 69.584 C 222.801 68.833,221.536 67.962,221.135 67.648 C 218.104 65.279,210.800 62.504,204.002 61.138 L 201.675 60.670 204.377 60.293 C 207.877 59.804,208.896 59.492,209.556 58.708 C 212.083 55.705,204.116 53.629,195.422 55.025 C 194.278 55.208,193.317 55.333,193.286 55.302 C 193.255 55.271,194.158 54.627,195.294 53.871 C 197.444 52.439,197.843 51.884,197.499 50.800 C 197.207 49.879,195.133 49.998,189.901 51.235 C 186.140 52.124,177.345 57.621,171.540 62.711 C 170.283 63.813,169.904 64.011,167.584 64.778 C 159.893 67.320,156.836 68.854,152.522 72.336 C 152.069 72.701,152.009 72.705,151.692 72.388 C 150.780 71.476,149.613 72.171,143.018 77.562 C 118.813 97.343,109.905 109.417,106.302 127.330 C 105.795 129.849,105.232 132.599,105.051 133.441 C 104.690 135.125,104.761 135.649,105.395 135.989 C 106.363 136.506,106.919 135.928,108.491 132.770 C 109.296 131.152,110.137 129.594,110.361 129.308 L 110.766 128.787 110.772 132.431 C 110.775 134.637,110.899 136.815,111.085 137.949 C 111.254 138.980,111.394 139.917,111.396 140.031 C 111.397 140.157,110.513 140.241,109.161 140.244 C 97.896 140.264,98.069 155.097,109.501 169.287 L 110.759 170.849 109.067 170.910 C 96.184 171.374,83.820 159.994,81.177 145.237 C 77.296 123.569,90.095 95.489,114.964 71.107 C 141.962 44.639,181.809 29.320,214.368 32.894 M191.312 53.422 C 191.248 53.486,189.662 54.503,187.789 55.682 C 183.635 58.297,183.157 58.711,183.338 59.535 C 183.493 60.242,183.333 60.315,180.114 61.003 C 179.026 61.236,177.410 61.651,176.523 61.924 C 174.635 62.507,174.579 62.489,175.898 61.727 C 176.442 61.413,178.864 59.860,181.280 58.276 C 185.711 55.373,188.014 54.120,189.842 53.617 C 190.937 53.316,191.491 53.242,191.312 53.422 M204.960 57.186 C 205.941 57.379,205.586 57.442,199.881 58.096 C 196.854 58.444,193.043 58.913,191.412 59.140 C 187.239 59.720,186.413 59.685,188.339 59.011 C 190.827 58.140,195.111 57.437,200.729 56.977 C 201.758 56.892,204.037 57.005,204.960 57.186 M191.879 61.816 L 192.920 61.960 192.244 62.323 C 191.177 62.895,191.358 63.300,192.679 63.300 C 196.068 63.300,201.734 64.095,204.527 64.962 C 211.081 66.997,216.452 69.643,220.540 72.850 C 222.866 74.674,222.842 74.623,221.222 74.289 C 211.772 72.335,194.885 77.486,194.155 82.544 C 193.811 84.930,194.776 84.914,199.594 82.457 C 203.194 80.622,203.408 80.543,206.341 79.963 C 217.782 77.701,224.445 77.563,226.245 79.552 C 226.638 79.985,227.407 80.118,230.297 80.252 C 232.351 80.348,235.162 80.907,236.712 81.528 C 237.658 81.907,238.778 83.211,241.057 86.587 C 241.650 87.465,243.196 89.234,244.493 90.519 C 246.671 92.677,247.118 93.456,245.601 92.452 C 244.939 92.013,244.510 91.941,244.103 92.200 C 243.762 92.417,245.081 96.183,246.599 99.327 C 247.235 100.646,248.184 102.988,248.708 104.532 C 249.231 106.077,249.801 107.591,249.976 107.898 C 250.150 108.205,250.380 109.147,250.488 109.992 C 250.595 110.837,250.781 111.786,250.901 112.102 C 251.174 112.821,251.173 112.858,250.879 112.858 C 250.520 112.858,249.221 113.900,249.340 114.093 C 249.397 114.184,248.855 114.824,248.136 115.515 L 246.828 116.770 246.343 118.927 C 245.603 122.219,245.598 122.095,246.618 126.418 C 248.812 135.721,249.506 140.782,249.496 147.423 C 249.491 151.079,249.571 152.709,249.814 153.870 C 250.188 155.655,250.090 159.763,249.564 164.394 C 249.395 165.882,249.211 167.569,249.156 168.142 L 249.055 169.183 249.347 168.350 L 249.639 167.517 249.523 168.558 C 248.334 179.274,242.107 201.190,238.768 206.410 C 238.374 207.025,237.988 207.730,237.910 207.974 C 237.824 208.248,236.828 209.000,235.334 209.920 C 233.995 210.746,231.379 212.453,229.520 213.714 C 227.661 214.974,226.080 215.947,226.008 215.875 C 225.820 215.687,228.418 213.163,230.560 211.452 C 236.943 206.354,238.257 200.580,234.055 196.088 C 232.450 194.372,231.789 194.050,225.612 191.980 C 222.978 191.098,219.758 189.935,218.458 189.397 C 217.157 188.859,216.041 188.471,215.977 188.535 C 215.853 188.659,214.275 187.834,210.203 185.518 C 207.184 183.800,205.892 183.356,202.971 183.031 L 200.736 182.782 197.308 184.562 C 195.422 185.541,193.498 186.583,193.033 186.877 C 192.567 187.170,190.366 188.342,188.142 189.479 C 181.322 192.967,176.734 196.051,170.257 201.503 C 169.130 202.451,168.097 203.227,167.961 203.227 C 167.671 203.227,164.706 206.165,164.706 206.453 C 164.706 206.706,162.803 208.641,162.554 208.641 C 162.450 208.641,161.463 207.861,160.360 206.907 C 156.294 203.391,155.534 202.835,154.600 202.695 C 153.024 202.459,146.279 196.308,143.560 192.629 C 140.643 188.680,137.417 182.776,135.017 176.991 C 134.037 174.629,133.492 173.571,133.336 173.726 C 133.219 173.843,133.814 176.533,134.192 177.596 C 134.968 179.780,134.376 178.774,132.427 174.597 C 129.502 168.326,125.211 154.210,125.432 151.583 C 125.542 150.282,125.787 150.092,129.282 148.593 C 132.895 147.044,133.389 146.700,133.181 145.873 C 132.916 144.816,130.824 145.390,125.953 147.855 L 125.201 148.235 124.968 147.725 C 124.840 147.445,124.647 147.215,124.538 147.215 C 124.285 147.215,123.686 146.620,123.686 146.369 C 123.686 146.162,127.800 144.059,129.794 143.246 L 131.010 142.750 130.067 141.859 C 129.548 141.369,128.992 140.968,128.830 140.968 C 128.481 140.968,124.266 143.044,123.376 143.655 L 122.755 144.081 122.467 143.533 C 122.118 142.865,122.155 142.832,125.403 140.929 C 127.947 139.439,127.823 139.602,127.069 138.724 L 126.497 138.057 123.408 139.633 C 121.251 140.733,120.002 141.514,119.270 142.220 L 118.221 143.231 117.439 142.714 C 116.865 142.334,116.150 142.133,114.742 141.955 C 112.291 141.645,111.628 140.674,113.283 139.818 C 113.823 139.539,113.872 139.434,113.737 138.832 C 113.654 138.461,113.591 136.049,113.596 133.472 C 113.607 128.282,113.731 127.473,115.041 124.081 C 115.862 121.956,115.915 121.567,115.446 121.098 C 114.572 120.223,113.635 121.084,109.917 126.180 C 108.595 127.992,108.575 127.974,109.123 125.431 C 111.820 112.913,121.186 99.674,136.581 86.617 C 138.807 84.730,141.946 82.048,143.557 80.657 C 145.168 79.267,146.515 78.156,146.551 78.189 C 146.587 78.222,145.761 79.266,144.716 80.509 C 140.359 85.691,137.012 91.724,137.012 94.394 C 137.012 94.941,136.590 96.245,135.794 98.162 C 134.464 101.360,133.943 102.849,133.182 105.614 L 132.683 107.428 134.159 106.336 C 135.313 105.483,135.674 105.086,135.813 104.522 C 137.423 97.959,138.622 94.591,139.398 94.445 C 139.784 94.373,141.958 93.369,144.230 92.215 C 152.082 88.226,154.775 87.558,169.287 86.005 C 172.551 85.655,175.502 85.335,175.846 85.294 C 176.299 85.240,176.597 85.355,176.929 85.712 C 177.938 86.797,178.735 86.277,182.128 82.318 C 184.345 79.732,185.178 78.361,185.041 77.522 C 184.778 75.897,184.217 75.852,181.490 77.240 C 180.377 77.807,179.343 78.223,179.193 78.165 C 179.042 78.108,178.869 78.190,178.808 78.348 C 178.536 79.059,175.860 80.375,174.687 80.375 C 171.812 80.375,166.040 81.280,161.277 82.478 C 156.080 83.786,152.905 84.982,143.207 89.287 C 141.403 90.088,139.927 90.693,139.927 90.631 C 139.927 90.083,143.849 84.722,146.525 81.613 C 152.838 74.278,158.878 69.673,166.444 66.428 C 169.683 65.039,173.640 63.682,174.062 63.816 C 174.246 63.875,175.894 63.649,177.724 63.315 C 184.081 62.154,189.888 61.539,191.879 61.816 M186.308 78.706 C 186.002 78.947,185.170 79.960,184.458 80.957 C 183.747 81.954,182.613 83.354,181.937 84.068 C 180.166 85.942,180.577 87.191,182.561 85.965 C 182.987 85.702,183.527 85.512,183.762 85.543 C 184.293 85.612,184.657 85.224,186.751 82.354 C 188.630 79.779,188.754 79.499,188.268 78.925 C 187.726 78.287,186.951 78.200,186.308 78.706 M229.672 83.346 C 229.672 83.393,230.259 84.500,230.977 85.807 C 232.818 89.158,233.737 91.261,234.443 93.739 C 235.415 97.153,236.420 102.959,236.297 104.453 L 236.231 105.258 235.099 105.287 C 233.750 105.323,233.331 105.715,233.499 106.786 C 233.692 108.014,234.757 108.703,237.600 109.441 C 239.174 109.849,239.274 109.949,238.574 110.414 C 236.202 111.988,236.379 113.393,239.123 114.772 C 240.037 115.232,241.142 115.834,241.579 116.110 L 242.374 116.611 242.376 116.036 C 242.377 115.720,242.432 114.992,242.500 114.420 L 242.622 113.378 241.664 112.862 L 240.707 112.345 241.665 111.858 L 242.623 111.372 242.477 109.668 C 242.305 107.649,242.350 107.714,240.909 107.451 C 240.283 107.337,239.378 107.137,238.897 107.007 L 238.023 106.771 238.376 106.232 C 239.735 104.158,237.389 92.200,234.805 88.026 C 234.291 87.196,233.660 86.078,233.402 85.541 C 233.003 84.711,232.758 84.487,231.771 84.053 C 230.500 83.493,229.672 83.215,229.672 83.346 M202.615 91.845 C 195.590 92.631,193.634 97.511,195.613 109.318 C 196.416 114.113,196.589 114.746,198.466 119.770 C 199.242 121.847,199.690 123.366,199.694 123.935 C 199.707 125.659,200.363 126.010,203.006 125.704 C 204.930 125.482,205.151 125.524,205.127 126.104 C 205.124 126.180,204.587 126.423,203.935 126.643 C 203.282 126.863,201.878 127.450,200.815 127.947 C 199.752 128.443,198.830 128.797,198.765 128.732 C 198.700 128.667,198.647 128.723,198.647 128.856 C 198.647 129.840,197.198 130.189,196.454 129.385 C 195.851 128.735,195.540 128.767,193.021 129.738 C 190.856 130.573,189.828 131.418,190.141 132.105 C 190.582 133.074,189.453 134.013,188.476 133.489 C 188.234 133.360,188.003 133.343,187.937 133.450 C 187.514 134.133,189.545 133.997,192.406 133.149 C 195.461 132.245,197.685 131.806,199.223 131.806 C 199.863 131.806,200.675 131.716,201.026 131.606 C 206.655 129.841,210.013 130.530,210.945 133.642 C 211.438 135.288,210.898 141.558,210.108 143.363 C 209.607 144.508,208.122 150.721,208.305 150.905 C 208.702 151.302,209.529 150.050,211.136 146.615 C 213.095 142.430,213.680 141.785,212.895 144.679 C 212.843 144.871,213.032 144.557,213.317 143.981 C 214.249 142.089,215.418 132.847,214.725 132.847 C 214.635 132.847,214.467 132.332,214.351 131.702 C 214.236 131.072,214.216 130.557,214.307 130.557 C 214.664 130.557,214.438 129.748,213.771 128.640 L 213.070 127.477 214.272 126.419 L 215.474 125.361 219.441 125.307 C 223.312 125.255,223.418 125.265,223.841 125.719 C 224.307 126.219,224.976 126.331,225.212 125.948 C 225.314 125.785,225.909 125.754,227.160 125.849 L 228.961 125.985 229.557 125.363 C 230.316 124.570,230.062 124.195,228.631 123.998 L 227.611 123.858 228.443 122.640 C 230.818 119.160,231.737 112.912,230.557 108.277 C 230.309 107.303,229.908 105.436,229.666 104.127 C 229.040 100.742,228.611 100.047,225.584 97.513 C 221.885 94.418,217.043 92.470,213.014 92.456 C 212.270 92.454,210.957 92.317,210.096 92.152 C 207.950 91.742,204.723 91.609,202.615 91.845 M206.559 95.061 C 211.654 95.367,218.327 97.056,221.126 98.747 C 222.553 99.610,224.248 101.099,224.388 101.614 C 224.466 101.900,224.755 102.405,225.030 102.737 C 228.456 106.860,228.986 116.553,226.052 121.443 C 225.452 122.443,225.330 122.538,224.670 122.518 C 223.787 122.491,217.513 121.966,217.435 121.912 C 217.405 121.891,217.533 121.274,217.721 120.541 C 219.215 114.715,216.341 104.714,212.044 100.787 C 207.848 96.952,201.929 98.227,199.270 103.540 C 198.245 105.589,198.156 105.422,198.270 101.663 C 198.412 96.968,200.451 94.433,203.748 94.850 C 204.092 94.894,205.357 94.989,206.559 95.061 M172.841 95.589 C 166.454 97.348,159.142 101.662,150.859 108.555 C 146.494 112.188,145.865 112.894,144.962 115.179 C 144.646 115.981,140.829 117.467,138.782 117.584 C 134.830 117.812,133.800 116.359,134.471 111.504 C 134.724 109.667,134.805 109.684,133.159 111.224 L 131.761 112.532 131.844 114.434 C 132.009 118.209,134.788 120.704,137.741 119.729 C 140.221 118.911,137.861 121.383,129.331 128.539 C 125.990 131.342,127.355 132.652,131.980 131.079 C 134.459 130.236,138.019 129.467,139.019 129.557 C 139.857 129.633,133.924 133.935,131.688 134.872 C 131.009 135.157,130.416 135.425,130.372 135.467 C 130.300 135.534,130.650 136.019,131.819 137.472 C 132.546 138.376,143.569 130.737,143.997 129.032 C 144.548 126.836,141.876 126.348,135.711 127.518 C 134.938 127.665,134.305 127.756,134.305 127.722 C 134.305 127.687,135.611 126.622,137.207 125.355 C 139.926 123.196,141.801 121.389,141.801 120.927 C 141.801 120.816,141.942 120.780,142.113 120.846 C 142.642 121.048,143.050 120.753,143.050 120.170 C 143.050 119.809,143.371 119.250,143.964 118.578 L 144.878 117.543 145.018 118.792 C 145.288 121.204,146.002 124.644,146.683 126.809 C 147.951 130.845,149.810 137.757,150.337 140.396 L 150.576 141.593 151.550 141.592 C 152.226 141.592,153.117 141.336,154.455 140.759 C 155.517 140.301,157.029 139.748,157.814 139.530 C 158.599 139.313,160.494 138.575,162.026 137.890 C 163.557 137.206,165.466 136.407,166.268 136.115 C 167.069 135.823,168.475 135.215,169.391 134.765 C 170.307 134.315,171.338 133.890,171.681 133.821 C 172.094 133.738,171.882 133.906,171.057 134.317 C 170.370 134.659,169.966 134.895,170.159 134.842 C 170.352 134.788,171.664 134.497,173.074 134.194 C 174.484 133.891,176.340 133.456,177.199 133.227 C 178.058 132.998,179.053 132.789,179.411 132.761 C 180.166 132.704,186.426 128.123,186.215 127.782 C 186.146 127.669,186.192 127.641,186.318 127.719 C 186.519 127.843,187.309 126.861,188.703 124.755 C 188.903 124.453,189.062 123.925,189.056 123.581 L 189.046 122.957 188.693 123.444 C 188.498 123.712,187.886 124.743,187.331 125.735 C 186.777 126.726,186.366 127.397,186.419 127.225 C 186.472 127.054,186.852 125.873,187.262 124.603 C 188.543 120.638,188.937 114.666,188.155 111.053 C 186.419 103.034,183.559 98.970,178.501 97.338 C 177.900 97.144,177.408 96.860,177.408 96.708 C 177.408 95.379,175.393 94.885,172.841 95.589 M176.598 99.951 C 180.737 100.730,183.971 104.734,185.226 110.633 C 185.663 112.683,185.625 112.703,184.605 110.959 C 180.010 103.110,170.875 102.441,165.628 109.569 C 162.482 113.842,163.245 123.467,167.266 130.245 C 167.674 130.932,167.944 131.551,167.866 131.621 C 167.580 131.880,159.505 135.443,156.481 136.645 C 154.763 137.327,153.292 137.926,153.211 137.976 C 153.131 138.025,152.962 137.665,152.836 137.174 C 152.711 136.684,151.657 132.769,150.494 128.475 C 147.078 115.859,147.211 115.451,156.897 108.854 C 160.647 106.301,165.026 103.724,168.350 102.115 C 173.206 99.763,174.207 99.501,176.598 99.951 M208.806 101.597 C 213.359 103.953,216.857 115.167,214.754 120.666 L 214.356 121.707 212.071 121.840 C 210.815 121.913,208.194 122.026,206.247 122.091 L 202.707 122.211 201.269 117.899 L 199.831 113.587 199.950 111.192 C 200.316 103.854,204.470 99.354,208.806 101.597 M178.443 108.447 C 181.899 112.084,184.481 121.137,183.459 126.028 C 183.116 127.668,182.971 127.767,180.704 127.908 C 179.569 127.978,177.722 128.300,176.262 128.681 L 173.764 129.334 172.878 128.363 C 167.889 122.893,166.349 116.633,168.746 111.567 C 170.150 108.600,172.249 107.262,175.528 107.245 L 177.292 107.236 178.443 108.447 M253.930 115.565 C 253.859 115.679,253.971 115.775,254.178 115.777 C 256.595 115.802,258.310 120.243,258.734 127.575 L 258.881 130.111 258.071 129.823 C 255.405 128.872,251.952 132.451,251.952 136.164 C 251.952 137.836,251.579 136.577,250.988 132.910 C 250.623 130.643,249.982 127.288,249.563 125.455 C 248.803 122.127,248.737 120.887,249.267 119.897 C 249.404 119.641,249.357 119.488,249.097 119.343 C 248.001 118.729,251.589 115.390,253.370 115.366 C 253.778 115.360,254.006 115.441,253.930 115.565 M169.108 127.283 C 169.587 127.996,170.257 128.935,170.595 129.369 C 170.934 129.804,171.176 130.190,171.134 130.226 C 170.940 130.392,170.128 130.765,169.959 130.765 C 169.674 130.765,167.669 126.815,167.090 125.114 C 166.356 122.954,166.465 122.735,167.412 124.472 C 167.866 125.305,168.629 126.570,169.108 127.283 M194.378 125.715 C 192.386 126.006,191.567 126.264,191.567 126.600 C 191.567 126.798,191.508 127.385,191.437 127.906 L 191.307 128.853 193.155 128.116 C 194.171 127.711,195.024 127.363,195.050 127.342 C 195.331 127.116,194.730 125.664,194.378 125.715 M197.302 126.236 C 197.504 126.905,197.583 126.950,198.847 127.108 L 199.984 127.251 199.576 126.793 C 198.731 125.846,197.061 125.437,197.302 126.236 M187.000 128.170 C 184.011 129.769,183.203 132.403,186.127 131.010 C 187.494 130.360,187.481 130.374,188.034 128.915 C 188.610 127.394,188.542 127.345,187.000 128.170 M258.043 131.817 L 258.824 132.034 258.822 133.950 C 258.821 137.296,257.956 145.679,257.401 147.734 C 257.235 148.348,257.229 148.343,256.971 147.318 C 256.552 145.653,255.521 143.357,254.724 142.313 L 253.987 141.348 254.088 138.607 C 254.208 135.329,254.689 133.688,255.901 132.413 C 256.742 131.529,256.874 131.493,258.043 131.817 M135.138 139.035 C 133.599 139.433,133.559 139.515,134.462 140.398 L 135.243 141.160 136.075 140.695 C 137.830 139.713,137.152 138.514,135.138 139.035 M117.785 144.302 C 118.712 144.968,118.752 144.976,119.317 144.643 C 120.462 143.967,121.357 144.933,120.531 145.953 C 119.787 146.872,120.298 147.914,121.274 147.469 C 121.736 147.258,121.797 147.316,122.298 148.422 L 122.830 149.598 122.192 150.130 C 121.286 150.887,121.439 151.479,122.544 151.497 L 123.373 151.510 123.650 152.850 C 123.903 154.079,125.183 159.731,125.486 160.958 C 125.561 161.264,125.268 160.952,124.774 160.201 C 122.915 157.374,119.361 154.620,116.618 153.882 C 112.133 152.674,108.566 155.496,109.525 159.494 C 109.873 160.947,110.151 160.997,110.151 159.606 C 110.151 153.396,119.701 155.283,123.567 162.258 L 124.345 163.663 123.693 164.211 C 121.808 165.797,120.503 171.589,121.169 175.412 C 121.305 176.193,121.377 176.871,121.329 176.919 C 121.186 177.061,113.831 169.225,112.297 167.297 C 104.347 157.304,101.963 146.598,107.103 143.976 L 108.173 143.431 112.503 143.524 L 116.833 143.618 117.785 144.302 M254.231 148.108 C 255.224 151.988,255.231 156.159,254.246 157.102 L 253.653 157.670 253.537 156.555 C 253.473 155.942,253.364 154.409,253.295 153.149 C 253.226 151.890,253.037 149.500,252.874 147.840 C 252.711 146.179,252.585 144.633,252.594 144.404 C 252.621 143.723,253.781 146.346,254.231 148.108 M221.343 164.637 C 212.156 165.598,198.596 171.021,188.860 177.628 C 181.800 182.420,176.790 187.651,177.587 189.400 C 177.922 190.135,179.685 189.757,179.434 189.005 C 179.283 188.553,184.254 185.086,190.010 181.628 C 202.713 173.997,219.828 167.523,224.362 168.633 C 226.746 169.217,230.694 169.085,231.701 168.387 C 233.400 167.209,233.325 165.393,231.557 164.917 C 230.805 164.715,230.130 164.696,226.757 164.785 C 226.242 164.798,224.977 164.753,223.946 164.685 C 222.915 164.617,221.744 164.595,221.343 164.637 M127.048 166.996 C 127.168 167.340,127.336 167.577,127.421 167.524 C 127.539 167.452,129.676 174.194,130.515 177.284 C 130.603 177.607,130.539 177.660,130.173 177.564 C 129.629 177.422,129.612 177.628,130.056 178.932 C 130.239 179.468,130.514 179.906,130.668 179.906 C 130.823 179.906,131.013 180.010,131.092 180.138 C 131.800 181.283,127.148 179.453,126.100 178.174 C 124.261 175.929,124.358 167.265,126.231 166.511 C 126.729 166.311,126.831 166.372,127.048 166.996 M208.400 189.202 C 216.172 193.031,217.846 193.804,220.510 194.796 C 227.966 197.572,230.808 198.864,231.221 199.663 C 231.684 200.559,231.624 201.769,231.062 202.832 C 230.795 203.336,230.417 204.392,230.220 205.179 C 229.578 207.751,227.863 210.307,226.780 210.307 C 226.455 210.307,225.948 210.496,225.655 210.726 C 224.024 212.009,220.925 213.021,217.690 213.326 L 216.223 213.464 215.224 212.639 C 214.177 211.773,213.475 211.563,211.619 211.559 C 210.134 211.556,207.468 210.685,205.102 209.430 L 203.123 208.381 202.306 208.851 C 201.857 209.109,200.998 209.706,200.398 210.178 C 199.798 210.650,199.064 211.204,198.768 211.410 C 198.472 211.616,198.227 211.944,198.224 212.139 C 198.214 212.634,196.592 213.567,195.048 213.964 C 194.336 214.148,192.755 214.620,191.534 215.014 L 189.315 215.729 188.619 215.335 C 186.404 214.078,181.221 213.784,179.140 214.796 C 176.503 216.079,176.017 218.639,178.412 218.635 C 179.579 218.632,185.258 217.838,186.713 217.473 C 187.738 217.216,188.097 217.201,188.468 217.400 C 189.161 217.771,197.502 216.997,207.656 215.621 C 212.364 214.982,212.045 214.989,211.755 215.531 C 211.473 216.059,211.283 215.901,213.568 217.043 C 222.923 221.721,226.395 227.459,225.414 236.621 C 225.244 238.212,225.101 238.314,224.608 237.197 C 223.319 234.274,220.756 231.913,217.374 230.532 C 208.102 226.745,199.688 226.033,199.688 229.037 C 199.688 229.991,200.131 230.199,201.476 229.876 C 204.115 229.243,213.291 231.807,218.116 234.525 C 218.993 235.020,221.354 237.952,221.904 239.230 C 222.368 240.310,222.620 244.057,222.257 244.471 C 221.275 245.592,221.857 247.993,224.285 252.837 C 228.716 261.672,228.832 265.021,224.779 267.091 C 224.435 267.266,223.967 267.578,223.738 267.784 C 223.509 267.989,222.782 268.313,222.124 268.503 C 221.465 268.693,220.927 268.927,220.927 269.024 C 220.927 269.522,219.044 269.924,217.905 269.669 C 214.542 268.916,209.158 265.068,207.027 261.894 C 206.400 260.959,206.346 261.331,208.251 253.345 C 209.566 247.832,209.610 247.269,208.684 247.765 C 208.074 248.091,207.400 249.587,206.351 252.941 C 205.841 254.573,205.363 255.908,205.288 255.908 C 205.041 255.908,204.300 253.939,203.836 252.047 C 203.232 249.586,203.128 249.537,202.847 251.579 C 202.556 253.685,202.839 255.147,203.972 257.396 C 204.716 258.875,204.720 258.896,204.651 261.196 C 204.578 263.618,204.745 264.169,205.821 265.062 C 205.998 265.209,206.143 265.643,206.143 266.026 C 206.143 267.533,213.200 272.320,216.274 272.898 C 216.919 273.019,216.935 273.051,217.076 274.459 C 217.209 275.783,217.595 276.312,217.595 275.170 C 217.595 274.898,217.701 274.412,217.829 274.090 L 218.064 273.503 218.261 274.128 C 218.556 275.060,218.710 282.607,218.476 284.674 L 218.273 286.474 216.650 288.526 C 213.549 292.446,209.742 295.875,206.210 297.930 C 205.298 298.460,204.848 298.860,204.760 299.219 C 204.690 299.505,204.458 299.880,204.245 300.052 C 203.323 300.794,203.043 302.396,202.820 308.204 C 202.583 314.381,202.195 320.227,201.998 320.607 C 201.922 320.752,201.167 319.735,200.221 318.212 C 198.439 315.343,196.158 312.129,195.904 312.129 C 195.817 312.129,194.454 310.944,192.875 309.495 C 187.202 304.289,183.624 301.874,178.240 299.619 C 177.512 299.314,176.517 298.600,175.507 297.658 C 173.907 296.166,171.153 294.179,169.131 293.058 C 168.530 292.724,168.038 292.375,168.038 292.281 C 168.037 292.036,169.700 289.754,170.942 288.293 C 172.271 286.729,172.464 286.065,172.167 284.070 C 171.990 282.878,171.998 282.347,172.201 281.732 C 172.720 280.157,171.979 275.579,169.823 267.048 C 169.100 264.185,168.450 261.256,168.380 260.538 C 168.309 259.821,168.016 258.305,167.728 257.169 C 167.440 256.033,167.205 254.884,167.205 254.616 C 167.205 254.347,167.075 253.942,166.917 253.716 C 166.759 253.490,166.464 252.697,166.261 251.952 C 166.058 251.208,165.775 250.458,165.633 250.286 C 165.491 250.115,164.853 248.240,164.215 246.122 C 161.506 237.118,160.430 231.428,161.165 229.987 C 161.702 228.934,161.379 228.013,159.756 225.972 C 157.502 223.136,157.695 218.891,160.237 215.430 L 161.245 214.057 161.681 214.466 L 162.117 214.876 163.046 213.712 C 163.557 213.071,164.210 212.365,164.497 212.141 C 164.784 211.918,165.721 211.056,166.580 210.226 C 169.958 206.964,171.725 205.414,173.947 203.768 C 175.220 202.825,177.743 200.952,179.553 199.607 C 188.791 192.740,199.208 186.903,202.777 186.594 C 202.931 186.580,205.461 187.754,208.400 189.202 M155.432 215.603 L 156.554 216.347 156.053 217.625 C 155.777 218.328,155.493 219.218,155.421 219.603 C 155.348 219.987,155.265 220.302,155.235 220.302 C 155.205 220.302,154.770 220.076,154.269 219.800 C 153.768 219.523,152.949 219.177,152.450 219.031 C 151.599 218.781,148.395 216.114,148.673 215.886 C 148.730 215.839,149.456 215.397,150.286 214.904 C 152.050 213.857,152.169 213.598,150.807 213.775 L 149.818 213.904 150.411 213.270 C 150.856 212.794,150.967 212.521,150.856 212.173 C 150.754 211.850,151.255 212.187,152.510 213.284 C 153.500 214.150,154.815 215.193,155.432 215.603 M188.484 228.007 C 186.592 228.273,185.087 228.752,184.266 229.348 C 182.602 230.557,181.849 231.030,181.270 231.230 C 179.886 231.708,178.929 237.223,180.021 238.429 C 180.901 239.401,182.405 238.622,182.405 237.194 C 182.405 235.488,183.562 233.377,184.635 233.125 C 185.792 232.854,187.402 232.116,187.402 231.858 C 187.402 231.422,189.493 231.234,194.343 231.234 C 199.187 231.234,199.688 231.117,199.688 229.984 C 199.688 228.642,192.716 227.412,188.484 228.007 M93.891 249.749 C 93.843 249.797,92.820 250.084,91.618 250.385 C 86.643 251.634,71.367 256.574,65.521 258.824 C 63.157 259.734,63.320 259.491,65.993 258.119 C 72.530 254.763,81.406 251.868,89.641 250.406 C 91.359 250.101,92.905 249.820,93.077 249.781 C 93.567 249.670,93.987 249.653,93.891 249.749 M164.172 259.084 C 164.496 260.577,165.362 265.029,165.639 266.623 C 165.718 267.076,166.072 268.328,166.426 269.406 C 167.001 271.157,167.041 271.435,166.802 272.018 C 166.479 272.809,165.112 277.827,164.974 278.731 C 164.910 279.153,165.038 279.698,165.343 280.293 C 165.970 281.522,167.621 285.892,167.621 286.325 C 167.621 286.675,166.037 288.810,165.781 288.806 C 165.705 288.804,165.423 287.891,165.154 286.775 C 164.206 282.846,162.131 278.440,159.673 275.136 C 158.077 272.991,155.774 270.482,155.202 270.265 C 154.594 270.033,154.585 269.671,155.163 268.550 L 155.614 267.673 155.806 268.402 C 156.189 269.855,157.002 270.166,157.002 268.859 C 157.002 267.941,158.103 265.540,159.600 263.196 C 161.257 260.602,163.115 258.112,163.202 258.371 C 163.365 258.860,163.708 258.609,163.579 258.095 C 163.507 257.808,163.538 257.574,163.647 257.574 C 163.755 257.574,163.992 258.254,164.172 259.084 M224.050 271.838 C 223.500 272.423,223.217 272.500,223.217 272.063 C 223.217 271.830,223.875 271.441,224.451 271.333 C 224.499 271.324,224.319 271.551,224.050 271.838 M221.531 273.464 C 221.513 274.209,221.485 274.260,221.343 273.816 C 221.100 273.058,221.100 272.312,221.343 272.462 C 221.458 272.533,221.542 272.984,221.531 273.464 M158.888 279.685 C 160.655 282.439,163.821 289.970,163.393 290.399 C 162.925 290.866,161.477 289.879,161.189 288.897 C 160.850 287.734,157.953 278.903,157.728 278.345 C 157.412 277.558,157.844 278.057,158.888 279.685 M156.423 284.852 C 157.193 287.085,157.825 288.959,157.829 289.016 C 157.832 289.073,156.499 289.089,154.867 289.051 C 151.525 288.974,150.919 289.176,150.052 290.661 C 149.612 291.416,149.607 291.168,150.293 303.800 C 150.340 304.659,150.392 305.830,150.410 306.403 C 150.428 306.976,150.560 307.519,150.703 307.611 C 150.846 307.702,150.963 308.055,150.963 308.396 L 150.963 309.014 149.037 308.909 C 143.273 308.596,142.658 308.587,142.158 308.815 C 141.118 309.289,140.895 310.774,141.596 312.553 C 142.115 313.871,142.088 313.912,140.610 314.085 C 137.054 314.499,130.949 316.296,126.830 318.140 L 124.568 319.153 123.051 315.797 C 121.519 312.407,116.629 302.024,114.857 298.398 C 114.328 297.317,113.967 296.365,114.054 296.284 C 115.205 295.200,129.285 288.077,134.721 285.827 C 142.631 282.554,150.117 280.605,154.191 280.760 L 155.023 280.791 156.423 284.852 M251.952 294.662 C 248.572 294.816,244.974 295.275,242.478 295.873 C 241.032 296.220,240.769 296.233,240.483 295.976 C 240.005 295.544,239.512 295.612,239.154 296.159 C 238.697 296.856,239.059 311.753,239.653 316.739 C 240.410 323.097,242.483 334.050,244.278 341.176 C 244.624 342.551,245.036 344.518,245.193 345.549 C 245.749 349.188,248.127 356.645,248.949 357.327 C 249.196 357.532,249.359 357.532,249.744 357.325 C 250.166 357.100,250.529 357.175,252.496 357.896 C 265.572 362.685,274.101 362.018,285.060 355.350 C 289.866 352.426,292.259 350.393,294.390 347.423 L 296.183 344.925 296.878 341.177 C 297.781 336.304,298.642 302.347,297.879 301.735 C 297.757 301.637,296.955 301.444,296.096 301.305 C 295.237 301.166,293.550 300.783,292.348 300.454 C 275.903 295.962,263.268 294.150,251.952 294.662 M263.717 298.175 C 267.648 298.493,270.152 298.876,278.188 300.392 C 285.706 301.811,290.268 302.548,291.539 302.550 C 291.975 302.550,292.514 302.726,292.821 302.967 C 293.112 303.196,293.553 303.384,293.800 303.384 C 295.205 303.384,295.526 304.301,295.365 307.860 C 295.298 309.349,295.328 313.097,295.432 316.189 C 295.614 321.628,295.602 321.985,295.035 327.121 C 294.112 335.484,293.809 339.018,293.665 343.116 L 293.530 346.929 292.650 347.651 C 284.810 354.075,274.590 358.106,266.736 357.871 C 260.685 357.691,251.740 355.163,250.814 353.371 C 249.971 351.741,246.020 336.913,244.374 329.204 C 241.924 317.725,239.638 298.803,240.702 298.803 C 240.813 298.803,241.896 298.655,243.110 298.475 C 247.937 297.758,256.919 297.627,263.717 298.175 M142.718 317.491 C 143.031 319.518,143.275 323.035,143.399 327.303 L 143.535 331.977 143.033 331.845 C 142.756 331.772,141.827 331.598,140.968 331.458 C 139.278 331.181,138.847 330.869,137.583 329.001 C 136.596 327.543,131.409 324.460,126.860 322.628 C 125.840 322.218,125.383 321.930,125.454 321.742 C 125.512 321.590,125.560 321.332,125.560 321.170 C 125.560 321.007,125.630 320.889,125.716 320.908 C 125.802 320.926,126.012 320.884,126.184 320.815 C 126.772 320.580,131.699 319.020,133.806 318.402 C 136.443 317.629,140.493 316.801,141.939 316.738 C 142.546 316.712,142.607 316.771,142.718 317.491 M143.544 333.420 C 143.957 334.961,143.826 335.016,142.069 334.045 L 140.656 333.264 141.697 333.140 C 142.270 333.073,142.891 333.002,143.078 332.984 C 143.271 332.966,143.473 333.154,143.544 333.420 M296.656 339.771 C 296.603 339.971,296.561 339.807,296.561 339.407 C 296.561 339.006,296.603 338.842,296.656 339.042 C 296.708 339.243,296.708 339.571,296.656 339.771 M210.498 345.111 C 210.450 345.156,209.551 345.766,208.499 346.468 C 207.448 347.169,206.255 348.140,205.848 348.624 C 205.128 349.483,205.110 349.491,205.106 348.951 C 205.100 348.192,206.579 346.919,208.699 345.857 C 210.199 345.107,210.740 344.882,210.498 345.111 " stroke="none" fill="#0e0e0e" fill-rule="evenodd"></path><path id="path2" d="M167.725 17.827 C 154.432 18.893,142.649 22.887,133.731 29.348 C 131.127 31.235,131.025 31.377,129.865 34.677 C 128.938 37.314,128.887 37.433,126.600 42.166 C 124.009 47.531,122.228 51.507,122.228 51.929 C 122.228 52.121,121.994 52.741,121.707 53.306 C 121.029 54.645,121.061 54.826,121.820 53.938 C 122.428 53.226,122.615 53.207,122.247 53.894 C 122.052 54.259,132.027 51.097,134.913 49.879 C 136.244 49.317,137.220 49.355,137.220 49.970 C 137.220 50.376,137.846 50.177,139.227 49.332 C 156.052 39.034,177.146 31.831,194.690 30.394 C 196.236 30.267,198.087 30.100,198.804 30.022 L 200.106 29.880 198.595 28.770 C 187.645 20.720,177.315 17.058,167.725 17.827 M197.814 32.694 C 147.592 36.146,95.832 75.970,82.876 121.127 C 81.052 127.485,81.004 128.802,82.443 133.113 C 84.459 139.159,92.520 140.156,108.850 136.379 L 110.776 135.934 110.771 132.360 C 110.765 127.942,110.833 127.887,107.379 135.104 C 107.036 135.820,106.051 136.275,105.443 135.998 C 104.724 135.671,104.667 135.033,105.157 132.842 C 105.400 131.757,105.974 128.996,106.431 126.706 C 108.091 118.401,110.514 112.702,115.489 105.399 C 116.451 103.988,117.180 102.742,117.110 102.628 C 116.825 102.166,117.280 101.437,118.274 100.765 C 118.854 100.373,120.345 98.881,121.587 97.449 C 126.484 91.805,131.152 87.402,140.135 79.954 C 149.836 71.912,150.669 71.365,151.684 72.380 C 151.990 72.686,152.073 72.669,152.688 72.174 C 156.770 68.883,159.845 67.356,167.600 64.765 C 169.927 63.987,170.316 63.783,171.556 62.692 C 177.264 57.667,186.141 52.124,189.901 51.235 C 195.321 49.954,197.259 49.870,197.518 50.904 C 197.791 51.992,197.470 52.422,195.309 53.861 C 194.165 54.622,193.255 55.271,193.286 55.302 C 193.317 55.333,194.278 55.207,195.422 55.021 C 204.074 53.617,212.081 55.708,209.554 58.711 C 208.912 59.473,207.799 59.821,204.477 60.295 C 203.160 60.483,202.054 60.664,202.019 60.696 C 201.984 60.728,202.593 60.863,203.372 60.996 C 209.431 62.026,218.102 65.274,221.135 67.650 C 221.536 67.964,222.762 68.800,223.861 69.509 C 226.126 70.969,229.584 74.366,231.133 76.651 C 231.892 77.773,232.302 78.152,233.331 78.685 C 237.889 81.049,244.415 86.669,249.466 92.581 C 251.504 94.967,251.446 95.941,249.254 96.152 L 248.235 96.250 248.553 96.918 L 248.871 97.585 250.672 97.203 C 253.775 96.545,255.599 95.748,258.969 93.579 C 264.316 90.137,271.774 82.909,273.021 79.961 C 273.239 79.444,273.563 78.911,273.740 78.777 C 274.323 78.332,273.181 72.087,271.814 68.254 C 263.986 46.295,230.944 30.417,197.814 32.694 M124.102 56.456 C 122.212 57.030,120.549 57.614,120.405 57.754 C 120.132 58.019,118.644 61.010,118.785 61.010 C 118.830 61.010,119.552 60.557,120.391 60.004 C 121.229 59.450,123.134 58.264,124.623 57.367 C 127.118 55.863,127.874 55.369,127.631 55.400 C 127.580 55.406,125.992 55.882,124.102 56.456 M263.189 93.159 C 262.390 93.920,258.460 96.359,256.221 97.485 C 253.506 98.850,253.883 98.968,256.718 97.642 C 259.154 96.502,264.315 92.931,263.605 92.877 C 263.544 92.872,263.357 92.999,263.189 93.159 M214.258 131.199 C 214.361 131.590,214.487 132.098,214.538 132.327 C 214.589 132.556,214.594 132.325,214.549 131.815 C 214.504 131.304,214.378 130.797,214.269 130.687 C 214.142 130.561,214.138 130.748,214.258 131.199 M211.012 136.596 C 211.012 138.027,211.045 138.613,211.086 137.897 C 211.127 137.181,211.127 136.010,211.086 135.294 C 211.045 134.578,211.012 135.164,211.012 136.596 M86.309 139.719 C 86.380 139.833,86.643 139.921,86.894 139.912 C 87.334 139.898,87.335 139.891,86.934 139.719 C 86.361 139.473,86.157 139.473,86.309 139.719 M207.945 152.255 C 207.776 152.902,207.905 152.935,208.187 152.317 C 208.317 152.031,208.343 151.796,208.245 151.796 C 208.146 151.796,208.011 152.003,207.945 152.255 M230.636 269.051 C 230.456 269.309,230.339 269.713,230.376 269.950 C 230.414 270.186,230.403 270.258,230.353 270.108 C 230.213 269.691,230.086 269.806,228.057 272.176 C 227.016 273.394,225.631 274.846,224.981 275.404 L 223.798 276.419 223.945 279.230 C 224.207 284.252,224.305 283.685,222.828 285.733 C 221.836 287.107,221.444 287.862,221.219 288.824 C 221.056 289.525,220.782 290.298,220.610 290.543 C 219.924 291.522,214.211 296.662,211.713 298.547 C 209.501 300.217,209.058 300.642,209.058 301.095 C 209.058 302.535,207.680 306.715,207.206 306.715 C 206.876 306.715,206.735 308.051,207.041 308.276 C 208.246 309.166,208.077 315.920,206.697 322.020 C 205.920 325.458,205.868 325.321,210.188 331.286 C 211.224 332.717,212.597 334.657,213.239 335.596 L 214.405 337.304 215.234 336.429 C 216.873 334.700,218.682 332.450,219.936 330.584 C 222.341 327.002,226.619 320.978,229.055 317.743 C 230.394 315.963,231.556 314.299,231.636 314.047 C 231.717 313.794,231.893 313.572,232.029 313.555 C 233.526 313.362,233.477 313.610,233.012 308.580 C 232.784 306.123,232.398 302.941,232.154 301.510 C 231.857 299.766,231.658 297.394,231.554 294.324 C 231.468 291.803,231.342 289.554,231.274 289.326 C 230.621 287.139,230.740 279.959,231.448 278.879 C 231.848 278.269,231.865 277.060,231.471 277.211 C 231.254 277.295,231.157 276.951,231.055 275.745 C 230.849 273.315,230.887 272.607,231.230 272.414 C 231.489 272.269,231.507 271.966,231.340 270.501 C 231.111 268.493,231.077 268.422,230.636 269.051 M233.469 318.248 C 233.313 318.590,233.299 318.792,233.431 318.792 C 233.684 318.792,233.907 318.275,233.796 317.943 C 233.752 317.811,233.605 317.949,233.469 318.248 M208.699 345.857 C 206.579 346.919,205.100 348.192,205.106 348.951 C 205.110 349.491,205.128 349.483,205.848 348.624 C 206.255 348.140,207.448 347.169,208.499 346.468 C 211.192 344.672,211.216 344.598,208.699 345.857 M209.102 348.877 C 208.725 349.137,207.815 349.978,207.080 350.747 L 205.743 352.144 206.033 355.198 C 206.365 358.700,206.543 361.588,206.552 363.620 C 206.559 364.951,206.582 365.020,206.961 364.818 C 207.588 364.482,207.635 363.973,207.198 362.265 C 206.629 360.036,207.263 356.355,209.193 350.685 C 210.027 348.237,210.027 348.238,209.102 348.877 M232.483 355.234 C 230.880 355.916,224.392 359.076,218.065 362.256 L 206.563 368.037 206.561 369.131 C 206.560 369.732,206.617 370.224,206.687 370.224 C 206.758 370.224,211.794 367.701,217.879 364.618 C 223.964 361.535,230.630 358.295,232.691 357.419 C 237.031 355.575,237.417 355.272,236.543 354.399 C 235.952 353.807,235.731 353.852,232.483 355.234 M229.256 365.217 C 225.763 365.994,221.827 366.872,220.510 367.166 C 219.193 367.461,216.663 367.952,214.888 368.258 C 209.946 369.110,207.630 370.154,208.224 371.263 C 208.566 371.902,209.318 371.978,210.429 371.487 C 210.974 371.246,212.177 370.906,213.102 370.733 C 214.027 370.559,216.002 370.192,217.491 369.916 C 224.060 368.701,237.038 365.687,237.312 365.312 C 237.676 364.814,237.658 364.675,237.168 364.185 C 236.587 363.604,236.377 363.632,229.256 365.217 " stroke="none" fill="#5e5e5e" fill-rule="evenodd"></path><path id="path3" d="M204.319 101.732 C 201.723 103.026,200.184 106.370,199.955 111.214 L 199.841 113.630 200.727 116.315 C 201.800 119.565,201.606 119.348,203.121 118.994 C 206.452 118.215,211.540 118.143,214.762 118.828 L 215.364 118.956 215.245 115.959 C 214.852 106.031,209.548 99.126,204.319 101.732 M173.347 107.421 C 168.591 108.653,166.098 116.152,168.576 121.772 C 169.297 123.408,171.202 126.393,171.524 126.393 C 172.103 126.393,176.409 125.295,178.897 124.513 C 181.611 123.661,182.555 123.528,183.252 123.901 C 183.621 124.099,183.654 124.042,183.654 123.219 C 183.654 118.143,181.350 111.622,178.419 108.402 L 177.453 107.340 175.713 107.300 C 174.755 107.277,173.691 107.332,173.347 107.421 M166.583 123.289 C 166.576 124.112,168.549 128.891,168.897 128.891 C 168.992 128.891,168.968 128.667,168.843 128.393 C 168.686 128.050,168.682 127.777,168.829 127.515 C 168.989 127.228,168.948 127.002,168.660 126.597 C 168.449 126.302,167.897 125.362,167.432 124.509 C 166.966 123.655,166.584 123.106,166.583 123.289 " stroke="none" fill="#5c8cac" fill-rule="evenodd"></path><path id="path4" d="M273.603 83.031 C 272.753 84.278,268.511 88.581,265.098 91.656 C 259.954 96.293,256.792 98.130,252.435 99.014 C 249.502 99.610,249.711 99.287,250.579 101.881 C 251.612 104.969,252.198 108.010,252.234 110.471 L 252.264 112.561 253.475 112.475 C 254.559 112.398,254.776 112.455,255.557 113.016 C 256.037 113.360,256.759 113.780,257.162 113.948 C 258.605 114.551,259.935 116.965,260.912 120.755 L 261.150 121.677 262.496 119.402 C 269.285 107.925,273.293 96.032,274.011 85.235 C 274.233 81.900,274.263 82.062,273.603 83.031 M118.173 100.807 C 117.232 101.514,117.030 101.774,117.026 102.290 C 117.020 102.913,117.337 102.700,118.342 101.406 C 119.423 100.013,119.389 99.893,118.173 100.807 M205.726 118.569 C 204.524 118.723,203.153 118.955,202.680 119.083 L 201.819 119.316 202.241 120.720 C 202.473 121.492,202.680 122.146,202.700 122.174 C 202.802 122.310,213.495 121.777,213.921 121.615 C 214.417 121.426,215.096 120.104,215.096 119.326 C 215.096 118.485,209.744 118.052,205.726 118.569 M178.761 124.538 C 177.387 124.984,175.167 125.600,173.828 125.906 L 171.395 126.464 172.030 127.349 C 172.379 127.835,172.920 128.478,173.232 128.776 L 173.798 129.318 176.241 128.689 C 177.584 128.342,179.357 128.007,180.180 127.943 C 182.864 127.737,182.979 127.699,183.216 126.958 C 184.318 123.515,183.420 123.027,178.761 124.538 M168.769 127.634 C 168.697 127.859,168.735 128.221,168.852 128.440 C 168.968 128.658,169.010 128.891,168.943 128.957 C 168.850 129.050,169.432 130.213,169.837 130.741 C 169.906 130.831,171.161 130.340,171.161 130.224 C 171.161 130.118,169.041 127.225,168.963 127.225 C 168.927 127.225,168.840 127.409,168.769 127.634 M81.129 128.907 C 81.049 129.299,80.927 130.338,80.858 131.215 L 80.732 132.810 81.833 133.974 C 83.034 135.244,83.463 135.459,83.011 134.565 C 82.546 133.644,82.029 131.925,81.638 129.993 C 81.308 128.360,81.261 128.260,81.129 128.907 M80.645 139.105 C 81.019 149.300,84.051 156.800,90.282 162.947 C 95.117 167.716,103.144 171.122,109.049 170.910 L 110.759 170.849 109.501 169.287 C 97.917 154.908,97.955 139.760,109.574 140.174 L 111.426 140.239 111.286 139.198 C 111.208 138.626,111.117 138.126,111.083 138.089 C 111.049 138.051,109.583 138.351,107.827 138.755 C 100.913 140.345,96.779 140.888,92.988 140.702 C 90.279 140.569,86.650 139.986,86.205 139.612 C 86.033 139.468,85.377 139.094,84.748 138.782 C 84.118 138.470,82.908 137.644,82.060 136.947 L 80.519 135.681 80.645 139.105 " stroke="none" fill="#484c4f" fill-rule="evenodd"></path><path id="path5" d="M135.138 49.790 C 134.623 50.027,131.531 51.106,128.267 52.187 C 125.004 53.267,122.225 54.266,122.092 54.405 C 121.703 54.814,120.070 58.000,120.382 57.742 C 120.539 57.613,122.353 56.999,124.414 56.377 C 127.926 55.318,133.309 52.677,137.012 50.198 C 137.969 49.557,136.390 49.214,135.138 49.790 M273.095 79.816 C 270.284 86.172,256.950 96.260,249.922 97.349 C 248.922 97.504,248.909 97.537,249.376 98.705 C 249.692 99.495,249.759 99.544,250.365 99.429 C 256.640 98.231,263.206 94.021,270.380 86.595 C 274.201 82.640,274.258 82.545,274.094 80.420 C 273.940 78.418,273.761 78.310,273.095 79.816 M209.682 131.910 C 210.071 132.311,210.436 132.639,210.493 132.639 C 210.550 132.639,210.279 132.311,209.891 131.910 C 209.502 131.510,209.137 131.182,209.080 131.182 C 209.023 131.182,209.294 131.510,209.682 131.910 M80.583 134.214 L 80.583 135.731 81.989 136.908 C 87.338 141.387,94.692 141.870,108.353 138.640 L 111.033 138.007 110.929 137.083 C 110.871 136.574,110.784 136.118,110.734 136.068 C 110.684 136.018,108.963 136.348,106.909 136.803 C 93.152 139.845,87.229 139.219,82.093 134.179 L 80.583 132.698 80.583 134.214 " stroke="none" fill="#3c3b3b" fill-rule="evenodd"></path><path id="path6" d="M222.072 80.161 C 220.490 80.371,215.677 81.123,213.988 81.424 C 205.663 82.905,194.378 86.927,191.914 89.292 C 190.011 91.117,190.019 91.326,192.515 105.254 C 193.464 110.552,194.527 117.463,194.410 117.580 C 194.313 117.678,192.188 118.064,191.747 118.064 C 191.429 118.064,191.358 117.903,191.358 117.179 C 191.352 111.600,187.887 99.968,184.937 95.625 C 179.323 87.357,165.253 89.167,143.858 100.910 C 142.527 101.641,141.299 102.238,141.130 102.238 C 139.452 102.238,131.322 108.128,127.418 112.173 C 122.636 117.126,121.330 120.300,121.306 127.017 L 121.291 131.078 121.893 132.222 C 122.224 132.851,122.812 133.781,123.199 134.288 C 124.063 135.419,124.349 135.194,119.729 137.009 C 114.993 138.870,112.726 139.984,112.550 140.538 C 112.285 141.372,112.740 141.732,114.255 141.884 C 115.033 141.963,116.010 142.117,116.427 142.228 C 117.280 142.455,119.758 141.505,124.102 139.284 C 126.766 137.923,126.355 137.897,127.793 139.511 C 132.060 144.298,138.944 149.647,144.389 152.407 L 146.265 153.358 149.187 153.358 L 152.108 153.358 155.128 151.863 C 158.785 150.053,163.298 147.467,172.936 141.662 C 181.167 136.704,187.917 133.174,188.520 133.511 C 189.412 134.010,190.636 132.963,190.158 132.109 C 189.998 131.823,190.108 131.539,190.656 130.821 C 191.143 130.183,191.364 129.666,191.376 129.136 C 191.390 128.522,191.689 124.243,191.779 123.373 C 191.791 123.259,191.736 122.638,191.657 121.994 L 191.514 120.822 192.217 120.714 C 192.604 120.655,193.295 120.464,193.753 120.290 L 194.586 119.973 194.724 120.945 C 194.800 121.479,194.870 122.998,194.880 124.321 C 194.910 128.229,196.716 131.030,198.230 129.516 C 198.791 128.955,198.760 128.717,197.974 127.530 L 197.301 126.514 197.147 122.775 C 196.971 118.498,196.429 113.935,195.402 108.082 C 192.172 89.668,192.157 91.424,195.563 89.634 C 206.407 83.936,225.893 81.046,232.135 84.209 C 240.935 88.668,245.373 110.914,240.466 125.976 C 239.146 130.028,239.208 129.998,232.412 129.816 C 227.469 129.683,223.994 129.812,217.175 130.380 L 214.360 130.614 214.568 131.750 L 214.777 132.887 217.071 132.715 C 218.333 132.621,219.740 132.557,220.198 132.574 C 220.656 132.591,222.858 132.678,225.091 132.768 C 233.520 133.106,238.830 133.010,239.771 132.502 C 242.561 130.997,245.970 122.897,246.966 115.409 C 247.236 113.375,247.257 113.344,248.090 113.724 C 249.286 114.269,250.130 113.224,250.397 110.868 C 250.701 108.178,249.910 107.094,247.818 107.336 L 246.590 107.479 246.442 105.848 C 245.559 96.143,243.500 89.355,240.212 85.306 C 239.730 84.713,238.944 83.696,238.466 83.047 C 237.418 81.623,236.428 81.185,232.920 80.589 C 230.328 80.148,224.031 79.900,222.072 80.161 M229.271 81.005 C 233.780 81.805,235.889 82.710,237.140 84.383 C 237.589 84.985,238.489 86.132,239.140 86.934 C 243.990 92.909,246.746 106.055,245.284 116.241 C 244.103 124.474,243.706 125.964,242.917 125.137 C 242.666 124.874,242.708 124.332,243.215 121.291 C 244.516 113.486,244.740 106.468,243.827 102.134 C 241.977 93.352,236.673 84.328,232.622 83.074 C 229.470 82.099,225.152 81.615,223.554 82.059 C 222.472 82.360,221.867 81.894,222.472 81.226 C 223.152 80.475,225.798 80.389,229.271 81.005 M220.519 81.322 C 220.959 81.852,220.235 82.480,219.747 81.992 C 219.407 81.651,219.635 80.999,220.094 80.999 C 220.180 80.999,220.371 81.145,220.519 81.322 M177.627 93.300 C 181.465 94.336,183.674 96.838,185.701 102.447 C 189.457 112.840,190.260 124.326,187.623 129.932 C 187.468 130.261,186.948 130.641,186.212 130.962 C 185.571 131.241,183.913 132.211,182.528 133.117 C 176.898 136.798,153.192 148.213,149.786 148.883 C 142.071 150.401,125.334 133.362,125.354 124.011 C 125.373 115.372,140.119 103.434,159.917 96.029 C 168.499 92.819,173.173 92.099,177.627 93.300 M129.941 112.972 C 130.381 113.503,129.658 114.130,129.169 113.642 C 128.829 113.301,129.057 112.650,129.516 112.650 C 129.602 112.650,129.794 112.795,129.941 112.972 M127.840 115.032 C 128.042 115.275,127.931 115.567,127.270 116.542 C 124.278 120.952,123.330 126.536,124.984 130.001 C 127.806 135.910,135.427 143.945,140.902 146.783 C 142.544 147.634,142.823 147.948,142.355 148.416 C 141.918 148.854,139.658 147.762,137.387 146.018 C 136.605 145.416,135.847 144.925,135.704 144.925 C 135.560 144.925,134.455 143.917,133.248 142.686 C 126.134 135.431,123.020 131.034,122.735 127.839 C 122.266 122.583,126.108 112.945,127.840 115.032 M242.988 125.860 C 243.187 126.099,243.093 126.467,242.520 127.682 C 242.125 128.519,241.742 129.398,241.669 129.635 C 241.425 130.429,240.354 131.284,239.987 130.980 C 239.467 130.548,239.611 129.917,240.630 128.158 C 242.043 125.721,242.502 125.273,242.988 125.860 M144.624 149.211 C 146.207 150.138,150.481 150.789,151.372 150.239 C 151.807 149.970,152.338 150.664,152.005 151.066 C 151.853 151.249,151.607 151.351,151.457 151.294 C 151.307 151.236,151.123 151.289,151.048 151.410 C 150.961 151.551,150.111 151.604,148.699 151.558 C 147.482 151.517,146.379 151.554,146.248 151.639 C 145.654 152.024,142.616 149.508,143.047 148.989 C 143.401 148.563,143.555 148.585,144.624 149.211 M232.905 313.369 C 232.837 313.479,232.657 313.520,232.503 313.461 C 232.212 313.350,231.546 313.886,231.546 314.233 C 231.546 314.343,230.437 315.905,229.082 317.706 C 226.626 320.969,222.351 326.988,219.944 330.572 C 219.246 331.611,217.800 333.473,216.730 334.709 C 215.660 335.946,214.704 337.066,214.606 337.198 C 214.494 337.351,215.009 338.402,216.012 340.066 C 218.178 343.660,218.122 344.403,215.625 345.234 C 214.885 345.480,213.323 346.261,212.153 346.969 L 210.027 348.256 209.432 349.922 C 207.475 355.392,206.632 360.050,207.198 362.265 C 207.635 363.973,207.588 364.482,206.961 364.818 C 206.577 365.023,206.312 367.933,206.677 367.933 C 206.742 367.933,211.872 365.376,218.078 362.249 C 233.699 354.379,236.103 353.396,236.753 354.609 C 237.160 355.370,236.654 355.735,233.176 357.194 C 230.599 358.274,207.075 369.919,206.569 370.364 C 206.517 370.410,206.404 371.826,206.317 373.511 C 205.997 379.718,204.930 387.676,203.052 397.866 L 202.658 400.000 222.204 400.000 L 241.749 400.000 241.747 395.992 C 241.744 389.396,241.120 382.743,239.635 373.451 C 238.999 369.475,238.597 363.672,238.986 364.081 C 239.095 364.196,239.397 365.508,239.658 366.996 C 239.919 368.485,240.219 369.844,240.325 370.016 C 240.459 370.232,240.483 370.136,240.403 369.703 C 240.189 368.534,238.207 354.528,237.279 347.631 C 236.233 339.849,235.096 330.284,234.396 323.373 C 233.969 319.161,233.884 318.695,233.555 318.752 C 233.213 318.812,233.210 318.774,233.520 318.176 C 233.804 317.626,233.821 317.236,233.636 315.435 C 233.517 314.280,233.420 313.297,233.420 313.252 C 233.420 313.086,233.024 313.176,232.905 313.369 M237.168 364.185 C 237.658 364.675,237.676 364.814,237.312 365.312 C 237.038 365.687,224.060 368.701,217.491 369.916 C 216.002 370.192,214.027 370.559,213.102 370.733 C 212.177 370.906,210.974 371.246,210.429 371.487 C 209.318 371.978,208.566 371.902,208.224 371.263 C 207.630 370.154,209.946 369.110,214.888 368.258 C 216.663 367.952,219.193 367.461,220.510 367.166 C 237.377 363.393,236.528 363.545,237.168 364.185 " stroke="none" fill="#767e84" fill-rule="evenodd"></path><path id="path7" d="M143.559 80.665 C 141.949 82.051,138.810 84.732,136.584 86.622 C 130.335 91.924,125.457 96.831,121.228 102.066 C 119.852 103.769,119.750 103.996,120.267 104.194 C 120.867 104.425,121.005 104.334,123.029 102.384 C 128.184 97.416,129.578 96.429,134.391 94.332 L 137.080 93.161 137.846 91.252 C 139.295 87.646,142.732 82.470,145.934 79.077 C 147.360 77.566,146.451 78.174,143.559 80.665 M250.286 111.469 C 250.286 113.104,249.178 114.180,247.999 113.692 C 247.646 113.546,247.326 113.463,247.286 113.507 C 247.058 113.763,246.843 116.398,247.050 116.398 C 247.338 116.398,249.619 114.110,249.342 114.099 C 249.232 114.095,249.498 113.786,249.935 113.412 C 250.767 112.699,251.040 111.654,250.526 111.141 C 250.345 110.959,250.286 111.040,250.286 111.469 M241.602 111.889 L 240.725 112.337 241.583 112.807 C 242.601 113.364,242.627 113.350,242.543 112.275 L 242.478 111.440 241.602 111.889 M134.894 121.893 C 134.359 122.038,133.234 122.556,132.395 123.047 C 131.556 123.537,129.885 124.503,128.683 125.194 C 125.363 127.103,125.454 126.850,126.918 130.062 C 127.723 131.828,127.785 131.888,127.681 130.800 C 127.607 130.028,127.660 129.955,129.301 128.562 C 137.713 121.420,138.022 121.051,134.894 121.893 M136.537 129.846 C 135.646 130.007,133.764 130.514,132.354 130.973 C 130.945 131.431,129.519 131.808,129.185 131.810 C 127.895 131.816,127.883 132.068,129.090 133.856 L 130.210 135.515 130.956 135.175 C 131.366 134.989,132.138 134.481,132.671 134.048 C 133.203 133.614,134.187 133.011,134.857 132.708 C 135.919 132.227,137.635 131.133,139.278 129.891 L 139.775 129.516 138.966 129.535 C 138.521 129.545,137.428 129.685,136.537 129.846 M121.699 133.119 C 121.610 133.474,121.056 133.858,119.561 134.598 C 115.735 136.493,113.691 137.802,113.691 138.355 C 113.691 139.452,113.854 139.540,114.908 139.010 C 115.441 138.741,117.611 137.841,119.729 137.009 C 124.385 135.180,124.073 135.453,123.063 134.099 C 122.604 133.484,122.228 132.904,122.228 132.810 C 122.228 132.429,121.811 132.673,121.699 133.119 M120.042 141.189 C 119.813 141.295,119.064 141.625,118.379 141.923 C 117.233 142.420,117.164 142.487,117.522 142.748 C 117.990 143.091,118.525 142.848,119.833 141.703 C 120.703 140.942,120.732 140.870,120.042 141.189 " stroke="none" fill="#94745c" fill-rule="evenodd"></path><path id="path8" d="" stroke="none" fill="#444444" fill-rule="evenodd"></path></g></svg>